<svg xmlns="http://www.w3.org/2000/svg" viewBox="0 0 107 107"><defs><style>.cls-1{fill:#f59a28;stroke:#fff;stroke-miterlimit:10;opacity:0.98;}.cls-2{fill:#fff;}</style></defs><g id="Calque_2" data-name="Calque 2"><g id="Calque_1-2" data-name="Calque 1"><rect class="cls-1" x="0.5" y="0.5" width="106" height="106"/><path class="cls-2" d="M62.64,60.84l12.69,4.47a22.41,22.41,0,0,1-7.42,12.83q-5.86,5-16.17,5-14.06,0-20.81-7.35A25.32,25.32,0,0,1,24.14,58a26.09,26.09,0,0,1,6.65-18q6.65-7.41,17.26-7.41,8.61,0,14,4.25V33.49H73.82V51.35H61.62a10.46,10.46,0,0,0-3.2-5.27,7.71,7.71,0,0,0-5.13-1.9q-7.95,0-7.95,13.67t8.23,13.71Q60.77,71.56,62.64,60.84Z"/></g></g></svg>