<svg xmlns="http://www.w3.org/2000/svg" viewBox="0 0 432.21 107"><defs><style>.cls-1{fill:#f59a28;stroke:#fff;stroke-miterlimit:10;opacity:0.98;}.cls-2{fill:#fff;}</style></defs><g id="Calque_2" data-name="Calque 2"><g id="Calque_1-2" data-name="Calque 1"><rect class="cls-1" x="0.5" y="0.5" width="106" height="106"/><path class="cls-2" d="M62.64,60.84l12.69,4.47a22.41,22.41,0,0,1-7.42,12.83q-5.86,5-16.17,5-14.06,0-20.81-7.35A25.32,25.32,0,0,1,24.14,58a26.09,26.09,0,0,1,6.65-18q6.65-7.41,17.26-7.41,8.61,0,14,4.25V33.49H73.82V51.35H61.62a10.46,10.46,0,0,0-3.2-5.27,7.71,7.71,0,0,0-5.13-1.9q-7.95,0-7.95,13.67t8.23,13.71Q60.77,71.56,62.64,60.84Z"/><path class="cls-2" d="M171.17,56.84l12.69,4.47a22.41,22.41,0,0,1-7.42,12.83q-5.87,5-16.17,5-14.06,0-20.81-7.34A25.31,25.31,0,0,1,132.68,54a26.08,26.08,0,0,1,6.64-18q6.65-7.41,17.26-7.42,8.61,0,14,4.26V29.49h11.74V47.35h-12.2a10.46,10.46,0,0,0-3.2-5.27,7.71,7.71,0,0,0-5.13-1.9q-7.95,0-7.95,13.67t8.23,13.71Q169.32,67.56,171.17,56.84Z"/><path class="cls-2" d="M213.71,78.39H189.28V67.67h3.62V40.21h-3.62V29.49h21.3V67.67h3.13Z"/><path class="cls-2" d="M242.78,78.39H218.63V67.67h3.52V55h-3.52V44.29h21.2V67.67h2.95ZM220.67,34.66a5.07,5.07,0,0,1,2.85-4.47,13.34,13.34,0,0,1,7-1.69,12.07,12.07,0,0,1,6.86,1.76,5.23,5.23,0,0,1,2.56,4.36,5,5,0,0,1-2.67,4.4,12.93,12.93,0,0,1-6.82,1.65,14.51,14.51,0,0,1-7-1.51A4.81,4.81,0,0,1,220.67,34.66Z"/><path class="cls-2" d="M275.2,78.39H248.48V67.67h4.22V55h-4.29V44.29h22V49a22.77,22.77,0,0,1,6.64-3.73,21.46,21.46,0,0,1,7.81-1.58q8.69,0,11.63,6.68,7.85-6.69,16-6.68a13.07,13.07,0,0,1,7.35,1.9A10.32,10.32,0,0,1,324,50.69,27.62,27.62,0,0,1,325.23,60v7.7h4.5V78.39H307.54V63.73q0-5.73-.88-7.14a3.43,3.43,0,0,0-3.16-1.4,9.63,9.63,0,0,0-5.8,2.18v10.3h4.82V78.39H280V63.8q0-5.62-.78-7.14c-.51-1-1.56-1.47-3.13-1.47a9.73,9.73,0,0,0-5.69,2.18v10.3h4.78Z"/><path class="cls-2" d="M348.29,53.82l-13.85-1.41a13.23,13.23,0,0,1,7.38-7.07q5-2,14.84-2,3.61,0,6.48.22a45.87,45.87,0,0,1,5.12.69,15.66,15.66,0,0,1,6.92,2.71,10.41,10.41,0,0,1,3.13,4,19.28,19.28,0,0,1,.92,6.9v9.84h4.36V78.39h-22V76.07q-4.56,3-12.23,3-7.21,0-10.87-3.16a9.59,9.59,0,0,1-3.69-7.49q0-4.77,4.54-7.84T351,57.47a26.41,26.41,0,0,1,10.51,1.73v-1a14.9,14.9,0,0,0-.45-4.43,4.55,4.55,0,0,0-2.18-2.29,8.76,8.76,0,0,0-4.08-.91A7.49,7.49,0,0,0,348.29,53.82Zm13.25,15.85V63.45a10.43,10.43,0,0,0-5-1.27,5.23,5.23,0,0,0-3.69,1.27,4.34,4.34,0,0,0-1.37,3.3,4.41,4.41,0,0,0,1.4,3.38,4.74,4.74,0,0,0,3.31,1.34A7.77,7.77,0,0,0,361.54,69.67Z"/><path class="cls-2" d="M401.83,78.39H388.44V67.67h4.29l5-5.45-6-7.21h-4.08V44.29h17.27l6.25,9.18,6.44-9.18H431V55h-4.79l-4.39,5,6.47,7.7h3.94V78.39H415.3l-6.58-9.31Z"/></g></g></svg>