<svg xmlns="http://www.w3.org/2000/svg" viewBox="0 0 262.98 63.91"><defs><style>.cls-1{fill:none;}.cls-2{fill:#fff;}.cls-3{fill:#f89522;}.cls-4{fill:#2da9e1;}.cls-5{fill:#010101;}.cls-6{fill:#e6e6e5;}</style></defs><title>Fichier 2logo-icon</title><g id="Calque_2" data-name="Calque 2"><g id="Calque_1-2" data-name="Calque 1"><path class="cls-1" d="M40.22,62.51a.29.29,0,0,0,.18-.27.2.2,0,0,0,0-.08.21.21,0,0,0-.05-.07L40.23,62l-.14,0a.52.52,0,0,0-.24.05.63.63,0,0,0-.19.15.91.91,0,0,0-.14.22,1.32,1.32,0,0,0-.09.27,4.07,4.07,0,0,0,.51-.09A1.23,1.23,0,0,0,40.22,62.51Z"/><path class="cls-1" d="M57.88,42.6h0l.08.06h0Z"/><path class="cls-1" d="M22.38,62.51a.33.33,0,0,0,.14-.13.32.32,0,0,0,0-.14.2.2,0,0,0,0-.08.19.19,0,0,0-.05-.07L22.38,62l-.14,0a.53.53,0,0,0-.24.05.62.62,0,0,0-.19.15.85.85,0,0,0-.14.22,1.32,1.32,0,0,0-.09.27,4.08,4.08,0,0,0,.51-.09A1.24,1.24,0,0,0,22.38,62.51Z"/><path class="cls-1" d="M47.4,62a.49.49,0,0,0-.28.08.73.73,0,0,0-.21.22,1.11,1.11,0,0,0-.13.31,1.44,1.44,0,0,0,0,.38.71.71,0,0,0,.11.44.39.39,0,0,0,.33.15.48.48,0,0,0,.28-.08.72.72,0,0,0,.21-.22A1.1,1.1,0,0,0,47.8,63a1.48,1.48,0,0,0,0-.38.71.71,0,0,0-.11-.44A.39.39,0,0,0,47.4,62Z"/><path class="cls-1" d="M26.73,62.51a.29.29,0,0,0,.17-.27.2.2,0,0,0,0-.08.2.2,0,0,0-.05-.07L26.74,62l-.14,0a.52.52,0,0,0-.24.05.61.61,0,0,0-.19.15.91.91,0,0,0-.14.22,1.32,1.32,0,0,0-.09.27,4.07,4.07,0,0,0,.51-.09A1.23,1.23,0,0,0,26.73,62.51Z"/><path class="cls-1" d="M34.52,1.94h0V1.77h0a.31.31,0,0,0,0,.08v.09Z"/><path class="cls-1" d="M31.91,62a.49.49,0,0,0-.28.08.75.75,0,0,0-.21.22,1.15,1.15,0,0,0-.13.31,1.48,1.48,0,0,0,0,.38.71.71,0,0,0,.11.44.39.39,0,0,0,.33.15.48.48,0,0,0,.27-.08.73.73,0,0,0,.21-.22A1.13,1.13,0,0,0,32.3,63a1.44,1.44,0,0,0,0-.38.7.7,0,0,0-.11-.44A.39.39,0,0,0,31.91,62Z"/><path class="cls-1" d="M14.84,61.35a.47.47,0,0,0-.18-.1.79.79,0,0,0-.25,0H14l-.15,1.24h.43a.84.84,0,0,0,.31-.05.61.61,0,0,0,.23-.15.65.65,0,0,0,.14-.23.87.87,0,0,0,0-.29.63.63,0,0,0,0-.21A.44.44,0,0,0,14.84,61.35Z"/><path class="cls-1" d="M49.35,52.65a1.86,1.86,0,0,0-.69-.49,2.37,2.37,0,0,0-.92-.17,2.4,2.4,0,0,0-.93.17,1.85,1.85,0,0,0-.68.49,2.19,2.19,0,0,0-.43.78,3.71,3.71,0,0,0,0,2.08,2.2,2.2,0,0,0,.43.78,1.82,1.82,0,0,0,.69.49,2.44,2.44,0,0,0,.93.17,2.4,2.4,0,0,0,.92-.17,1.83,1.83,0,0,0,.69-.49,2.2,2.2,0,0,0,.43-.78,3.71,3.71,0,0,0,0-2.08A2.19,2.19,0,0,0,49.35,52.65Z"/><path class="cls-1" d="M17.45,62.51a.29.29,0,0,0,.17-.27.22.22,0,0,0,0-.08.21.21,0,0,0-.05-.07L17.45,62l-.14,0a.53.53,0,0,0-.24.05.62.62,0,0,0-.19.15.88.88,0,0,0-.14.22,1.32,1.32,0,0,0-.09.27,4.1,4.1,0,0,0,.51-.09A1.25,1.25,0,0,0,17.45,62.51Z"/><path class="cls-2" d="M9.06,30.93v-.24a.52.52,0,0,0,0-.18.43.43,0,0,0-.1-.14.77.77,0,0,0-.18-.13l-4.53-2.3-.5-.24-.52-.22.52-.22L4.21,27l4.54-2.31a.77.77,0,0,0,.18-.13.43.43,0,0,0,.1-.14.52.52,0,0,0,0-.18V22.44H.1v1.83H5.65l.43,0L1.46,26.61a.78.78,0,0,0-.33.3.83.83,0,0,0-.11.43v.28a.83.83,0,0,0,.11.43.78.78,0,0,0,.33.3l4.61,2.38q-.44,0-.81,0H.1v1.83h9Z"/><polygon class="cls-2" points="1.7 35.96 3.83 35.96 3.83 38.78 5.37 38.78 5.37 35.96 7.46 35.96 7.46 39.64 9.06 39.64 9.06 33.87 0.1 33.87 0.1 39.64 1.7 39.64 1.7 35.96"/><path class="cls-2" d="M5.37,44.34q.13-.38.24-.73A4.68,4.68,0,0,1,5.85,43a1.49,1.49,0,0,1,.31-.45.63.63,0,0,1,.45-.17.85.85,0,0,1,.67.29,1.3,1.3,0,0,1,.25.87,1.88,1.88,0,0,1-.09.6,3.06,3.06,0,0,1-.2.47l-.2.37a.64.64,0,0,0-.09.3A.44.44,0,0,0,7,45.5a.79.79,0,0,0,.22.19l1,.52a3.06,3.06,0,0,0,.4-.55,4.09,4.09,0,0,0,.3-.65,4.27,4.27,0,0,0,.19-.74,4.82,4.82,0,0,0,.07-.8,3.56,3.56,0,0,0-.23-1.31,2.94,2.94,0,0,0-.6-1,2.54,2.54,0,0,0-.86-.6,2.5,2.5,0,0,0-1-.2,2.84,2.84,0,0,0-1.06.17,2.16,2.16,0,0,0-.71.45,2.31,2.31,0,0,0-.46.64,5.4,5.4,0,0,0-.3.73q-.12.38-.22.73a4.25,4.25,0,0,1-.23.64,1.34,1.34,0,0,1-.33.45.75.75,0,0,1-.51.17,1,1,0,0,1-.79-.31,1.38,1.38,0,0,1-.25-.88,2.06,2.06,0,0,1,.12-.73A3.49,3.49,0,0,1,2,41.91l.26-.43a.7.7,0,0,0,.12-.37.54.54,0,0,0-.07-.26.5.5,0,0,0-.18-.19l-1-.62a3.22,3.22,0,0,0-.48.63,4.88,4.88,0,0,0-.37.76,5.11,5.11,0,0,0-.24.84,4.38,4.38,0,0,0-.09.85,3.77,3.77,0,0,0,.23,1.36,2.89,2.89,0,0,0,.63,1,2.71,2.71,0,0,0,.94.63A3.11,3.11,0,0,0,3,46.34a2.4,2.4,0,0,0,1-.17,2.15,2.15,0,0,0,.67-.45,2.45,2.45,0,0,0,.45-.64A6.48,6.48,0,0,0,5.37,44.34Z"/><path class="cls-3" d="M13.48,34.93h0Z"/><path class="cls-3" d="M13.49,32.16h0v0s0,0,0,0Z"/><path class="cls-3" d="M13.06,36.93l0,0v0l0,0Z"/><path class="cls-3" d="M13.35,34.3l.13,0L13,33.63v.72h0Z"/><path class="cls-3" d="M40.84,44.6Z"/><path class="cls-3" d="M29.93,16.41s0,0,0,0a.45.45,0,0,0,0,.09A.66.66,0,0,0,29.93,16.41Z"/><path class="cls-3" d="M33.92,13.25l.1-.06h0Z"/><path class="cls-3" d="M39.28,46.81Z"/><path class="cls-3" d="M13.28,30a1.13,1.13,0,0,1,.26-.17l.26-.13q.5-.24,1-.45c.34-.14.69-.28,1-.4s.7-.24,1.06-.34Q18,28.16,19.05,28c.73-.14,1.46-.24,2.2-.32l.3,0,.31,0h.63a7.63,7.63,0,0,1,1.22.16A9.15,9.15,0,0,1,26,28.6a14.63,14.63,0,0,1,3.68,2.75c.21.21.41.43.61.65h0c.21-1.07.45-2.14.62-3.21a21.62,21.62,0,0,0,.26-3.21,19.91,19.91,0,0,0-.24-3.21c0-.27-.09-.53-.14-.8s-.1-.53-.15-.8l-.31-1.6c0-.27-.1-.53-.14-.8s-.08-.53-.12-.8S30,17,30,16.75v-.18l-.09-.15a2.86,2.86,0,0,1-.16-.37,2.79,2.79,0,0,1-.09-1.56,2.62,2.62,0,0,1,.31-.77,2.45,2.45,0,0,1,.6-.67,2.2,2.2,0,0,1,.85-.41l-.14-.16A6.55,6.55,0,0,1,30,10.22a6.67,6.67,0,0,1-.26-1.32,6.91,6.91,0,0,1,0-1.36c0-.06,0-.11,0-.17H14.3A1.25,1.25,0,0,0,13,8.61V30.32l0-.09A.79.79,0,0,1,13.28,30Z"/><path class="cls-3" d="M37.58,7.89l.31.51a7.37,7.37,0,0,1,.55,1.19,5.63,5.63,0,0,1,.19.67,4.93,4.93,0,0,1,.1.72,4.27,4.27,0,0,1-.19,1.56,4.85,4.85,0,0,1-.31.73,5.52,5.52,0,0,1-.41.65,7.23,7.23,0,0,1-1,1.07,8.43,8.43,0,0,1-1.09.84l0,0h0l.06,0c.05,0,0,0,0,0l-.12.08c.28.33.56.66.84,1l.55.59.28.29.07.07.09.1a1.83,1.83,0,0,1,.17.21,1.9,1.9,0,0,1,.34,1,2,2,0,0,1-.24,1l-.06.11v0h0a.27.27,0,0,0,0,.07,1,1,0,0,0,0,.14v.2c0,.27,0,.53,0,.8.06,1.07.19,2.14.33,3.21.07.52.14,1,.21,1.56l.33-.11H42l.36.21q3.38,2,6.67,4.24,1.64,1.1,3.26,2.24L53.91,34l.8.6.4.3.19.15.1.08.06.06,0,0v0l0,0a.22.22,0,0,1,0,.05v0a.17.17,0,0,1,0,.06.21.21,0,0,1-.13.07h-.12l-.24.06-.48.13-.94.26-.55.17.05,0,.13.08c.35.2.71.39,1.07.58l1.1.54.55.26.28.13,0,0V8.61A1.25,1.25,0,0,0,55,7.35H37.25l0,0Z"/><path class="cls-3" d="M13.36,31.56l.18,0-.15-.21-.16-.22,0-.05,0,0,0,0-.06-.13,0,0,0-.05v.85h0Z"/><path class="cls-3" d="M39.94,45.56l-.1-.12,0,0v0h0l-.1,0-.12-.05-.18-.07.18.17.06.07,0,.07a.35.35,0,0,1-.09.11l-.51-.1.12.05.13.06.07,0,.07.06.06.06v.06a.26.26,0,0,1-.06.1c-.36,0-.77,0-1.2,0H38.1l.51.08.29,0,.15,0a.24.24,0,0,1,.12.06l0,.05v0a.14.14,0,0,1,0,.12l-1.11.31-.2.05.24,0,.59-.06.3,0h.22v0c0-.06,0-.12,0-.17a1.54,1.54,0,0,1,.12-.35,1.34,1.34,0,0,1,.51-.56Z"/><path class="cls-3" d="M53.8,44.36c-1.62.48-3.23,1-4.88,1.34q-1.23.29-2.47.54L44,46.71l-1.25.21-.31,0H42.2l0,0-.17.15-.18.12a2.44,2.44,0,0,1-.73.3,2.67,2.67,0,0,1-.74.07,2.12,2.12,0,0,1-.72-.15.84.84,0,0,1-.19-.1.45.45,0,0,1-.2-.43v-.07h0l-.5.27-.51.31-.46.28-.22.13-.24.12-.42.21H55A1.25,1.25,0,0,0,56.24,47V43.62h0C55.43,43.89,54.61,44.12,53.8,44.36Z"/><path class="cls-3" d="M14.58,43.17q-.62-1-1.25-2L13,40.73V47a1.25,1.25,0,0,0,1.25,1.25h3.18l-.53-1C16.19,45.87,15.4,44.52,14.58,43.17Z"/><path class="cls-3" d="M39.39,46.79a0,0,0,0,1,0,0l-.11,0h0Z"/><rect class="cls-2" x="1.68" y="50.59" width="1.82" height="7.78"/><path class="cls-2" d="M10,54.7c0,.13,0,.26,0,.4s0,.29,0,.43L6.37,50.87l-.13-.14-.12-.08L6,50.6H4.83v7.78H6.42V54.2c0-.11,0-.24,0-.37s0-.26,0-.4L10,58.07a.75.75,0,0,0,.28.24.87.87,0,0,0,.35.06h.94V50.59H10Z"/><polygon class="cls-2" points="12.26 52.02 14.45 52.02 14.45 58.37 16.25 58.37 16.25 52.02 18.44 52.02 18.44 50.59 12.26 50.59 12.26 52.02"/><polygon class="cls-2" points="20.9 55.13 23.34 55.13 23.34 53.79 20.9 53.79 20.9 51.98 24.09 51.98 24.09 50.59 19.08 50.59 19.08 58.37 24.09 58.37 24.09 56.98 20.9 56.98 20.9 55.13"/><path class="cls-2" d="M31.8,50.59H30.21V54.7c0,.13,0,.26,0,.4s0,.29,0,.43l-3.7-4.67-.13-.14-.12-.08-.14,0H25v7.78H26.6V54.2c0-.11,0-.24,0-.37s0-.26,0-.4l3.67,4.64a.75.75,0,0,0,.28.24.87.87,0,0,0,.35.06h.94Z"/><rect class="cls-2" x="40.95" y="50.59" width="1.82" height="7.78"/><path class="cls-2" d="M50.67,51.65a3.79,3.79,0,0,0-1.27-.84,4.3,4.3,0,0,0-1.65-.31,4.37,4.37,0,0,0-1.66.3,3.8,3.8,0,0,0-1.28.83A3.74,3.74,0,0,0,44,52.9,4.38,4.38,0,0,0,44,56a3.71,3.71,0,0,0,2.1,2.1,4.65,4.65,0,0,0,3.31,0,3.74,3.74,0,0,0,1.27-.84A3.79,3.79,0,0,0,51.49,56a4.35,4.35,0,0,0,0-3.13A3.75,3.75,0,0,0,50.67,51.65Zm-.89,3.87a2.2,2.2,0,0,1-.43.78,1.83,1.83,0,0,1-.69.49,2.4,2.4,0,0,1-.92.17,2.44,2.44,0,0,1-.93-.17,1.82,1.82,0,0,1-.68-.49,2.2,2.2,0,0,1-.43-.78,3.71,3.71,0,0,1,0-2.08,2.19,2.19,0,0,1,.43-.78,1.85,1.85,0,0,1,.69-.49,2.4,2.4,0,0,1,.93-.17,2.37,2.37,0,0,1,.92.17,1.86,1.86,0,0,1,.69.49,2.19,2.19,0,0,1,.43.78,3.71,3.71,0,0,1,0,2.08Z"/><path class="cls-2" d="M57.74,54.7c0,.13,0,.26,0,.4s0,.29,0,.43l-3.7-4.67L54,50.72l-.12-.08-.14,0H52.54v7.78h1.59V54.2c0-.11,0-.24,0-.37s0-.26,0-.4l3.67,4.64a.75.75,0,0,0,.28.24.87.87,0,0,0,.35.06h.94V50.59H57.74Z"/><path class="cls-2" d="M65.25,55a1.83,1.83,0,0,0-.39-.58,2.13,2.13,0,0,0-.56-.4,5.87,5.87,0,0,0-.64-.27L63,53.59a4.08,4.08,0,0,1-.56-.21,1.29,1.29,0,0,1-.39-.27.54.54,0,0,1-.15-.39.74.74,0,0,1,.25-.58,1.12,1.12,0,0,1,.75-.22,1.65,1.65,0,0,1,.52.08,2.63,2.63,0,0,1,.41.17l.32.17a.55.55,0,0,0,.26.08.38.38,0,0,0,.23-.06.68.68,0,0,0,.17-.19l.45-.83a2.59,2.59,0,0,0-.47-.34,3.58,3.58,0,0,0-.57-.26,3.69,3.69,0,0,0-.64-.17,4.24,4.24,0,0,0-.7-.06,3.11,3.11,0,0,0-1.14.19,2.53,2.53,0,0,0-.83.52,2.19,2.19,0,0,0-.52.74,2.16,2.16,0,0,0-.18.85,2.48,2.48,0,0,0,.15.92,1.88,1.88,0,0,0,.39.62,2,2,0,0,0,.55.4A4.76,4.76,0,0,0,62,55l.64.19a3.61,3.61,0,0,1,.55.2,1.16,1.16,0,0,1,.39.28.65.65,0,0,1,.15.44.82.82,0,0,1-.27.69,1.2,1.2,0,0,1-.76.22,1.77,1.77,0,0,1-.63-.1,2.93,2.93,0,0,1-.47-.22l-.37-.22a.6.6,0,0,0-.32-.1.46.46,0,0,0-.23.06.45.45,0,0,0-.17.15l-.53.84a2.79,2.79,0,0,0,.54.42,4.19,4.19,0,0,0,.66.32,4.34,4.34,0,0,0,.73.21,3.77,3.77,0,0,0,.74.08,3.28,3.28,0,0,0,1.18-.2,2.53,2.53,0,0,0,.88-.55,2.36,2.36,0,0,0,.53-.81,2.69,2.69,0,0,0,.19-1A2.07,2.07,0,0,0,65.25,55Z"/><path class="cls-4" d="M60.68,1.14a.89.89,0,0,1,.15.29.57.57,0,0,0,0,.08V3.66l0,7.52,0,3.76,0,3.76c.06,10,.15,20.06.33,30.08.17-10,.26-20.06.33-30.08l0-3.76,0-3.76,0-7.52V1.5a.91.91,0,0,0,0-.15s0-.1,0-.15a1.68,1.68,0,0,0-.27-.55A1.61,1.61,0,0,0,60.27,0H48.93l-15,0c-5,0-10,0-15,.07L11.33.14,9.45.16H8a1.42,1.42,0,0,0-.53.2,1.49,1.49,0,0,0-.65.88,1.63,1.63,0,0,0,0,.27v.72l0,1.88c.06,5,.11,10,.21,15,.09-5,.15-10,.21-15l0-1.88V1.57a1.16,1.16,0,0,1,0-.19A1,1,0,0,1,7.73.79.92.92,0,0,1,8.08.67H9.45l1.88,0,7.52.05c5,0,10,0,15,.07l15,0H60.15A.8.8,0,0,1,60.68,1.14Z"/><path class="cls-5" d="M34.49,1.29h0l-.07,0-.26.16a12.23,12.23,0,0,0-2,1.43,7.43,7.43,0,0,0-1.59,2,7.22,7.22,0,0,0-.77,2.41c0,.06,0,.11,0,.17a6.91,6.91,0,0,0,0,1.36A6.67,6.67,0,0,0,30,10.21a6.55,6.55,0,0,0,1.24,2.27l.14.16a2.2,2.2,0,0,0-.85.41,2.45,2.45,0,0,0-.6.67,2.62,2.62,0,0,0-.31.77,2.79,2.79,0,0,0,.09,1.56,2.86,2.86,0,0,0,.16.37l.09.15v.18c0,.27.05.53.08.8s.07.53.12.8.09.53.14.8l.31,1.6c.05.27.1.53.15.8s.09.53.14.8a19.91,19.91,0,0,1,.24,3.21,21.62,21.62,0,0,1-.26,3.21c-.17,1.07-.41,2.14-.62,3.21h0c-.2-.22-.4-.44-.61-.65A14.63,14.63,0,0,0,26,28.59a9.15,9.15,0,0,0-2.26-.83,7.63,7.63,0,0,0-1.22-.16h-.63l-.31,0-.3,0c-.74.08-1.47.18-2.2.32s-1.44.31-2.15.52c-.36.1-.71.22-1.06.34s-.69.26-1,.4-.68.29-1,.45l-.26.13a1.13,1.13,0,0,0-.26.17.79.79,0,0,0-.2.26.78.78,0,0,0-.06.39.82.82,0,0,0,0,.13h0l0,.05,0,0,.06.13,0,0,0,0,0,.05.16.22.15.21-.18,0-.26.05h-.2l-.07,0-.08,0-.09,0a.68.68,0,0,0-.3.36.74.74,0,0,0,0,.15.76.76,0,0,0,0,.13.7.7,0,0,0,0,.1.64.64,0,0,0,0,.14l0,.05,0,0,0,.07.09.14.16.23.35.52.44.66-.13,0-.28,0H13l-.2.06a.74.74,0,0,0-.33.26.69.69,0,0,0-.1.25.72.72,0,0,0,0,.22.79.79,0,0,0,0,.14l0,.1.07.13.08.12.16.23.35.52h-.36l-.18,0-.15,0a.68.68,0,0,0-.34.3.66.66,0,0,0-.06.18.64.64,0,0,0,0,.15.69.69,0,0,0,0,.11.78.78,0,0,0,.08.24l0,.07,0,0,.1.15h0l-.07.09-.06.12,0,0L12,38l0,.07v.06a2,2,0,0,0,0,.42,1.84,1.84,0,0,0,0,.21s0,.08,0,.12L12,39l0,.09,0,.07,0,.06,0,0,0,.06.08.13.16.25.32.5.36.56.28.43q.64,1,1.25,2c.82,1.35,1.61,2.71,2.37,4.09l.53,1h.43l-4.59-8-.76-1.34a1.11,1.11,0,0,1,.07-.8c.11-.09.14,0,.18.1l1,1.64,5,8.39H19l-2.67-4.57c-1.23-2.11-2.48-4.21-3.72-6.32l-.08-.14c-.07-.12-.06-.2.1-.19h.68c.16,0,.22.12.29.23L15.81,41,20,48.27h.49l0,0-6.94-12c-.2-.34-.39-.68-.59-1-.1-.18-.06-.25.13-.27l.38,0h0l.34,0c.16,0,.21.12.26.22.65,1.11,1.3,2.21,1.94,3.32,1.89,3.28,3.72,6.59,5.7,9.81h1.59a19.14,19.14,0,0,1,6.32-2.58,21.46,21.46,0,0,1,4.85-.55,14.78,14.78,0,0,1,4.59.64l.17.06.06,0v0l-1.14-.12a22.11,22.11,0,0,0-6.46.3,21.24,21.24,0,0,0-6,2.17H28a27.12,27.12,0,0,1,5.52-1.62A22.77,22.77,0,0,1,38,46.27c.35,0,.7,0,1,.05a.14.14,0,0,1,.15.08c-.61.08-1.21.15-1.8.24A34.62,34.62,0,0,0,31,48.26h2.58a47.56,47.56,0,0,1,5.53-1.42l.18,0h0l.11,0a1.2,1.2,0,0,1,1.06-1,1.5,1.5,0,0,1,1.21.4.36.36,0,0,0,.46.06,38.44,38.44,0,0,1,5.21-1.88c3.23-1,6.5-1.8,9.77-2.67a.63.63,0,0,1,.56.1c.16.11.34.21.51.31s.12.05.1.13-.08.05-.13.07l-1.69.4c-4.78,1.13-9.54,2.32-14.27,3.64a.79.79,0,0,0-.44.29,2.21,2.21,0,0,1-2.09.66c-.27-.07-.28-.25-.26-.46h0l-2.11.83-1.47.58h1.1l.42-.21.24-.12.22-.13.46-.28c.16-.1.33-.21.51-.31l.5-.27h0V47a.45.45,0,0,0,.2.43.84.84,0,0,0,.19.1,2.12,2.12,0,0,0,.72.15,2.67,2.67,0,0,0,.74-.07,2.44,2.44,0,0,0,.73-.3L42,47.2l.17-.15,0,0h.21l.31,0L44,46.72q1.25-.22,2.49-.47t2.47-.54c1.64-.39,3.26-.87,4.88-1.34.81-.24,1.62-.47,2.43-.73h0l1.19-.41L58,43l.15-.05.07,0h0l.15,0a.69.69,0,0,0,.27-.19.65.65,0,0,0,.15-.3.66.66,0,0,0-.18-.62l-.14-.1-.05,0h0l-.3-.14L58,41.44l0,0a.62.62,0,0,0,0-.08.65.65,0,0,0-.09-.28L57.84,41l0,0h0a.61.61,0,0,0-.07-.46l-.06-.09-.05-.06,0,0-.07-.05h0s0,0,0,0a.7.7,0,0,0,0-.13v-.14a.72.72,0,0,0-.09-.31.71.71,0,0,0-.15-.18l-.1-.07-.05,0h0l-.07,0-.13-.06-.1,0-.08-.59a.93.93,0,0,0-.1-.33.86.86,0,0,0-.28-.31l-.09-.05h0l0,0-.27-.15-.55-.26-1.1-.54c-.36-.19-.72-.38-1.07-.58l-.13-.08-.05,0,.55-.17.94-.26.48-.12.24-.06h.12a.21.21,0,0,0,.13-.07.17.17,0,0,0,0-.06v0a.22.22,0,0,0,0-.05l0,0v0l0,0-.06-.06-.1-.08-.2-.16-.4-.3-.8-.6-1.61-1.16Q50.68,31.74,49,30.65q-3.29-2.2-6.67-4.24L42,26.2H38.58l-.33.11c-.07-.52-.14-1-.21-1.56-.14-1.07-.27-2.14-.33-3.21,0-.27,0-.53,0-.8v-.2a1,1,0,0,1,0-.14.27.27,0,0,1,0-.07h0v0l.06-.11a2,2,0,0,0,.24-1,1.9,1.9,0,0,0-.34-1,1.83,1.83,0,0,0-.17-.21l-.09-.1-.07-.07-.28-.29-.55-.59c-.29-.32-.57-.65-.84-1l.12-.08c.06,0,.07-.06,0,0l-.06,0h0l0,0A8.43,8.43,0,0,0,36.86,15a7.23,7.23,0,0,0,1-1.07,5.52,5.52,0,0,0,.41-.65,4.85,4.85,0,0,0,.31-.73A4.27,4.27,0,0,0,38.73,11a4.93,4.93,0,0,0-.1-.72,5.63,5.63,0,0,0-.19-.67,7.37,7.37,0,0,0-.54-1.19c-.1-.19-.21-.35-.31-.51l-.3-.49,0,0a19.25,19.25,0,0,1-1.06-2,5.35,5.35,0,0,1-.54-2.06,3.45,3.45,0,0,1,.12-1c0-.08,0-.16.07-.24v0h0l0-.06a.87.87,0,0,0,0-.15V1.78a.53.53,0,0,0,0-.07l0-.09,0-.09a.76.76,0,0,0-.29-.34l-.08,0-.06,0-.12,0a.82.82,0,0,0-.29,0,.9.9,0,0,0-.39.16l-.12.09h0ZM29.93,16.41a.66.66,0,0,1,0,.12.45.45,0,0,1,0-.09S29.92,16.4,29.93,16.41ZM13.08,37l0,0h0l0,0Zm44.86,5.68-.08-.06h0l0,0Zm-24-29.39.1-.07h0ZM13.8,30.36a23.68,23.68,0,0,1,5.41-1.5c.73-.12,1.47-.2,2.21-.26a7.43,7.43,0,0,1,4.32,1.1,16.77,16.77,0,0,1,4.49,3.92l5,6,4.53,5.42c0,.05.11.09.09.18s-.16,0-.23-.08A21.34,21.34,0,0,0,33.82,43a17.77,17.77,0,0,0-5-.31,16.63,16.63,0,0,0-6.32,1.8c-.2.1-.3.07-.41-.12l-8.4-13.67c-.12-.18-.11-.26.11-.36Zm-.32,1.77v0h0l0,0h0Zm8.44,15.64-4.27-7.3L13,32.58l-.1-.18c-.06-.1,0-.17.1-.17l.91-.06c.16,0,.21.11.26.21C15,33.67,15.75,35,16.5,36.26c1.86,3.21,3.68,6.44,5.66,9.57.09.15.16.25.36.1a12.75,12.75,0,0,1,5.16-2,20.14,20.14,0,0,1,4.3-.31,18.52,18.52,0,0,1,6.07,1.08,5.22,5.22,0,0,1,1.43.78l0,.06-1-.37a16.91,16.91,0,0,0-4.64-.87,18.12,18.12,0,0,0-10.57,2.85c-.33.21-.66.43-1,.66s-.24.09-.34-.08Zm17.51-1.64a1.54,1.54,0,0,0-.12.35c0,.06,0,.12,0,.17v0h-.22l-.3,0-.59.06-.24,0,.2-.05c.4-.11.77-.23,1.11-.31a.14.14,0,0,0,0-.12v0l0-.05a.24.24,0,0,0-.12-.06l-.15,0-.29,0-.51-.08h.07c.43,0,.84,0,1.2,0a.26.26,0,0,0,.06-.1v-.06l-.06-.06-.07-.06-.07,0-.13-.06L39,45.59l.51.1a.35.35,0,0,0,.09-.11l0-.07-.06-.07-.18-.17.18.07.12.05.1,0h0v0l0,0,.1.12h0a1.34,1.34,0,0,0-.52.53Zm16.66-5.89c.47-.08.76.26,1.09.47.1.07-.05.12-.13.13l-1.29.22A55.18,55.18,0,0,0,45.24,44a21.84,21.84,0,0,0-3.68,1.81.18.18,0,0,1-.19,0,12.79,12.79,0,0,1,1.69-1.24,27.06,27.06,0,0,1,6.19-2.72,51.43,51.43,0,0,1,6.84-1.63Zm1.13,1.24q-2.42.51-4.81,1.15a85.37,85.37,0,0,0-9.66,3.09l-.9.38a.73.73,0,0,1,.32-.28,29.59,29.59,0,0,1,5-2.24,58.67,58.67,0,0,1,9-2.44,1.48,1.48,0,0,1,1.11.1c.07,0,.18.05.17.14s-.13.08-.19.09Zm-.29-1.55c0,.08-.1.06-.16.07a34.23,34.23,0,0,0-4.41.74,32.85,32.85,0,0,0-9.47,3.68,14.14,14.14,0,0,0-1.61,1.12.38.38,0,0,1-.3.14c.27-.28.49-.54.74-.78a17.63,17.63,0,0,1,4.57-3.05A31.42,31.42,0,0,1,55,39.1a1.12,1.12,0,0,1,1,.18c.25.2.54.35.81.53C56.86,39.83,56.94,39.86,56.92,39.93Zm-4.43-3.45a.48.48,0,0,1,.4,0l3,1.93s.11.05.13.16a25.32,25.32,0,0,0-15.31,6.8,2.19,2.19,0,0,1,.33-.62,18.44,18.44,0,0,1,7.64-7A18.82,18.82,0,0,1,52.49,36.48Zm-11.9-9.69a.48.48,0,0,1,.37.08l5.67,3.32,8.58,5c.07,0,.16.07.21.15s-.1.07-.16.08a22.69,22.69,0,0,0-2.35.36,18.54,18.54,0,0,0-12.07,8.78h0l-.22.38c-.15.27-.23.1-.33,0-1-1.24-2.08-2.46-3.15-3.68-1.72-2-3.47-3.92-5.16-5.92-.36-.42-.7-.85-1.06-1.26a.36.36,0,0,1-.06-.45,10.05,10.05,0,0,1,3.35-4A17.14,17.14,0,0,1,40.58,26.79Zm-3.52-8.56a1.39,1.39,0,0,1,.24,1.84.94.94,0,0,0-.1.54v6.12a16.25,16.25,0,0,0-3.14,1.78l-.42.31-.41.34c-.27.23-.53.47-.78.72l-.37.39c-.12.13-.24.27-.35.41s-.29.37-.43.57V16.47a1,1,0,0,0-.13-.59,1.42,1.42,0,0,1,0-1.56.83.83,0,0,1,1.27-.15L36,17.31ZM34.51,1.85a.31.31,0,0,1,0-.08h0v.17h0a.46.46,0,0,1,0-.05A.12.12,0,0,1,34.51,1.85Zm.45,0c.06,0,.12-.13.21-.09s0,.1,0,.16a6.64,6.64,0,0,0,.55,3.66c.4,1,.83,1.95,1.24,2.93a6.12,6.12,0,0,1,.52,2.23,3.66,3.66,0,0,1-1.4,2.89,7.35,7.35,0,0,1-1.17.83c-.07,0-.15.14-.24.07s0-.17,0-.25a11.71,11.71,0,0,0,.48-3.73,3.43,3.43,0,0,0-1.33-2.77.75.75,0,0,0-.35-.18c.09.31.19.62.26.93a4.14,4.14,0,0,1,0,2.19,7.94,7.94,0,0,0-.42,3.07.09.09,0,0,1-.06.11,4.27,4.27,0,0,1-.58-.66A7.31,7.31,0,0,1,31,8.5a7.44,7.44,0,0,1,1.58-4.17A13.24,13.24,0,0,1,35,1.87Z"/><path class="cls-6" d="M32.47,14.18a.83.83,0,0,0-1.27.15,1.42,1.42,0,0,0,0,1.56,1,1,0,0,1,.13.59V31.25c.13-.2.28-.39.43-.57l.35-.41c.12-.14.24-.26.37-.39s.51-.5.78-.72l.41-.34.42-.31a16.25,16.25,0,0,1,3.14-1.78V20.61a.94.94,0,0,1,.1-.54,1.39,1.39,0,0,0-.24-1.84l-1-.92C34.84,16.27,33.66,15.22,32.47,14.18Z"/><path class="cls-3" d="M32.56,4.34A7.45,7.45,0,0,0,31,8.51a7.31,7.31,0,0,0,1.68,4.77,4.27,4.27,0,0,0,.58.66.09.09,0,0,0,.06-.11,7.92,7.92,0,0,1,.42-3.07,4.14,4.14,0,0,0,0-2.19c-.08-.31-.17-.61-.26-.93a.75.75,0,0,1,.35.18,3.44,3.44,0,0,1,1.33,2.77,11.71,11.71,0,0,1-.48,3.73c0,.08-.1.19,0,.25s.16,0,.24-.07a7.35,7.35,0,0,0,1.17-.83,3.66,3.66,0,0,0,1.4-2.89A6.12,6.12,0,0,0,37,8.53c-.41-1-.84-1.94-1.24-2.93a6.64,6.64,0,0,1-.55-3.66c0-.06,0-.13,0-.16s-.14,0-.21.09A13.24,13.24,0,0,0,32.56,4.34Z"/><polygon class="cls-5" points="39.38 46.84 39.38 46.84 39.38 46.84 39.38 46.84"/><path class="cls-5" d="M39.39,46.79l-.11,0,.09,0h0Z"/><path class="cls-2" d="M23.63,38.07a1.9,1.9,0,0,0,.42.26l.11,0,.12,0,.12,0,.12,0a3.45,3.45,0,0,0,1,0,4.78,4.78,0,0,0,1-.19,4.5,4.5,0,0,0,.89-.41,2.64,2.64,0,0,0,.77-.65,1.48,1.48,0,0,0,.33-.94,1.7,1.7,0,0,0-.36-.94,3,3,0,0,0-.73-.68,4.69,4.69,0,0,0-.87-.46,3.37,3.37,0,0,0-.92-.25,2.24,2.24,0,0,0-.91.07,1.92,1.92,0,0,0-.77.47,2.93,2.93,0,0,0-.56.78,3.14,3.14,0,0,0-.3.93,2.21,2.21,0,0,0,.06,1A1.75,1.75,0,0,0,23.63,38.07Z"/><path class="cls-2" d="M22.09,44.39c.12.19.21.22.41.12a16.63,16.63,0,0,1,6.32-1.8,17.77,17.77,0,0,1,5,.31,21.34,21.34,0,0,1,5.81,2.18c.07,0,.13.12.23.08s-.05-.13-.09-.18l-4.53-5.43-5-6a16.77,16.77,0,0,0-4.49-3.92,7.4,7.4,0,0,0-4.31-1.1c-.74.06-1.48.14-2.21.26a23.52,23.52,0,0,0-5.41,1.5c-.22.09-.23.17-.1.36Zm2.39-10.84a2.43,2.43,0,0,1,1.15-.1,3,3,0,0,1,.55.13,3.34,3.34,0,0,1,.52.21l.24.14.23.16a3.41,3.41,0,0,1,.41.36,3.73,3.73,0,0,1,.63.87,2.4,2.4,0,0,1,.29,1,2.05,2.05,0,0,1-.28,1,3.18,3.18,0,0,1-.3.45,3.35,3.35,0,0,1-.38.39,3,3,0,0,1-.94.57,3.14,3.14,0,0,1-1.09.19,3,3,0,0,1-2-.76,2.34,2.34,0,0,1-.59-.89,2.92,2.92,0,0,1-.18-1.07,3.08,3.08,0,0,1,.79-2,2.33,2.33,0,0,1,1-.65Z"/><path class="cls-2" d="M34.21,29.6a10.07,10.07,0,0,0-3.35,4,.36.36,0,0,0,.06.45c.36.42.71.84,1.06,1.26,1.69,2,3.43,4,5.16,5.92,1.06,1.22,2.12,2.44,3.15,3.68.1.12.18.29.33,0l.22-.38h0A18.54,18.54,0,0,1,52.9,35.81a22.69,22.69,0,0,1,2.35-.36c.06,0,.15,0,.16-.08s-.13-.11-.21-.15l-8.58-5L41,26.88a.48.48,0,0,0-.37-.08A17,17,0,0,0,34.21,29.6Zm1.92.88a9.79,9.79,0,0,1,1.22-1,5.93,5.93,0,0,1,1.9-.93,1.64,1.64,0,0,1,.6-.05c0,.06-.09.05-.13.06a7.06,7.06,0,0,0-2.87,1.54,12,12,0,0,0-1.83,2l0,0a1.69,1.69,0,0,1,.25-.65,5.1,5.1,0,0,1,.9-1Zm2.52,1.84a1.78,1.78,0,0,1-.24-.79.44.44,0,0,0-.08-.26s0,.07,0,.09a.15.15,0,0,1-.07.18.15.15,0,0,1-.19,0l0,0s0-.06-.08,0,0,.07,0,.1a.35.35,0,0,0,.19.23l.06,0a.38.38,0,0,1-.34-.14.34.34,0,0,1-.09-.36.17.17,0,0,1,.15-.13.15.15,0,0,0,.14-.09.24.24,0,0,1,.4,0,.49.49,0,0,1,.15.32c0,.1,0,.21,0,.31a1.33,1.33,0,0,0,.34.92A.65.65,0,0,1,38.65,32.32Zm-.8.4a.31.31,0,0,1-.29.23s-.1,0-.07-.06a0,0,0,0,0,0,0,.35.35,0,0,1,.06-.37.61.61,0,0,1,.39-.23l.14,0a.61.61,0,0,0,.43-.13.48.48,0,0,1-.28.37.31.31,0,0,0-.2.2.14.14,0,0,1-.13.1c0-.08.05-.13.08-.2s-.11.08-.12.14Zm1-.6a.75.75,0,0,1,.4.42,2,2,0,0,1,.17.69.31.31,0,0,0,.08.23s0-.08,0-.12a.15.15,0,0,1,.08-.17.14.14,0,0,1,.17,0l0,0s.06.06.1,0,0-.07,0-.1a.42.42,0,0,0-.2-.23s-.06,0-.07,0a.43.43,0,0,1,.46.4s0,0,0,0a.2.2,0,0,1-.18.2.15.15,0,0,0-.13.08.25.25,0,0,1-.33.11l-.08-.06a.52.52,0,0,1-.15-.33c0-.13,0-.25,0-.37a1.28,1.28,0,0,0-.32-.82Zm1-.9a.3.3,0,0,1-.36.22c-.09,0-.09,0-.14.09l.08,0s.1,0,.12,0-.06.09-.11.09-.18.07-.25.14a.47.47,0,0,1-.39.15c.14-.1.15-.27.21-.42a.74.74,0,0,1,.3-.36.55.55,0,0,1,.52,0s0,.05,0,.07ZM39.6,29a6.86,6.86,0,0,1-1.23,1.31,10.41,10.41,0,0,1-2.24,1.46l-.82.36a.21.21,0,0,1-.17,0,3.55,3.55,0,0,1,.44-.32,24.54,24.54,0,0,0,2.18-1.35,10.75,10.75,0,0,0,1-.87c.28-.26.54-.55.83-.79,0,0,.07-.08.13-.07a.66.66,0,0,1-.13.24Zm1.74,7.49a1.14,1.14,0,0,1,.75.57l0,0c-.06,0-.15,0-.16.08s.08.09.13.12l.06,0s.09.06.07.1-.07,0-.1,0H42c-.12,0-.23,0-.26-.17s0-.2.16-.26a2.08,2.08,0,0,0-.5-.25.56.56,0,0,1-.26-.16.22.22,0,0,1,0-.24.13.13,0,0,1,.15-.07c-.08.14-.06.2.1.24Zm.13,1.67a1.24,1.24,0,0,0,.59-.62.66.66,0,0,1,0,.59,2,2,0,0,1-.75.71,3.2,3.2,0,0,0-.58.45.64.64,0,0,0-.22.46.06.06,0,0,1,0,.06.51.51,0,0,1-.09-.44,1.49,1.49,0,0,1,.52-.78,7.43,7.43,0,0,1,.61-.44Zm-1.13,1.7a.49.49,0,0,0,.39.12,3,3,0,0,0,.86-.22,8.15,8.15,0,0,0,1.76-1A10.72,10.72,0,0,0,45,37.39a3.73,3.73,0,0,0,.71-1c.1-.22.2-.44,0-.68A.34.34,0,0,1,46,36a1,1,0,0,1-.12.65,4.3,4.3,0,0,1-.92,1.19,15.69,15.69,0,0,1-2,1.58,5,5,0,0,1-1.82.79,1.08,1.08,0,0,1-.59,0,.37.37,0,0,1-.28-.38s.06,0,.08.05Zm1.83-2.31a2.78,2.78,0,0,0,.8-.61c0,.25-.55.67-.8.61ZM43,36.8a1.6,1.6,0,0,0,.92-.52A2.24,2.24,0,0,1,45,35.69a.65.65,0,0,1,.54.09s.08.05.08.1h0c-.49-.08-.79.24-1.11.51a2.29,2.29,0,0,1-.85.53.75.75,0,0,1-.57-.05s-.06,0-.07-.08ZM40.6,33.63h0l.06-.07s0,0,0,.07a.53.53,0,0,0,.36.56,1.42,1.42,0,0,1,.32.16.55.55,0,0,1,.17.52c.18-.15.34-.1.41.13a1.61,1.61,0,0,1,0,.39,1,1,0,0,0,0,.28h0c0-.08.07-.13.16-.13a.25.25,0,0,1,.23.15,1,1,0,0,1,.06.35,1.88,1.88,0,0,0,.09.44l.1-.08a.18.18,0,0,1,.2,0,.22.22,0,0,1,.1.22c0,.08,0,.16,0,.23s0,0,0,0a.06.06,0,0,1-.05,0,.49.49,0,0,1-.07-.2s0-.1-.07-.1-.08,0-.09.09-.06.07-.1,0a1.14,1.14,0,0,1-.28-.78.68.68,0,0,0,0-.11c0-.12,0-.13-.16-.09h0c0,.1.05.19.07.32a.77.77,0,0,1-.31-.47,1.18,1.18,0,0,1,0-.38c0-.23,0-.23-.2-.27h0c0,.09,0,.17,0,.26s-.08-.05-.1-.09a2,2,0,0,1-.12-.23.42.42,0,0,0-.24-.24.73.73,0,0,1-.46-.91.34.34,0,0,0,0,0h0a1.77,1.77,0,0,1-1,.72h0a.82.82,0,0,1,.57.14.6.6,0,0,1,.26.44.7.7,0,0,0,.28.5.75.75,0,0,1,.17.21l-.26-.06c-.08.15-.06.2.11.24a1.56,1.56,0,0,1,.43.16.86.86,0,0,1,.35.39l0,0a2.41,2.41,0,0,0-.74-.32L40.62,36a.23.23,0,0,1,0-.43.77.77,0,0,1-.35-.16A.63.63,0,0,1,40.1,35a.58.58,0,0,0-.48-.61c-.06,0,0,0,0-.06h0s0-.05,0,0-.33.16-.5.23a1.42,1.42,0,0,1-1.08,0,4.41,4.41,0,0,1-1.24-.85c-.28-.25-.55-.51-.81-.78a1.73,1.73,0,0,0-.92-.58c0-.06.08-.05.11-.05a1.47,1.47,0,0,1,.76.16,4.79,4.79,0,0,1,1,.79,7.17,7.17,0,0,0,.79.65,2,2,0,0,0,1.22.35,5.19,5.19,0,0,0,.94-.1.7.7,0,0,0,.44-.33,5.25,5.25,0,0,0,.39-1,2,2,0,0,0-.07-1.32c-.16-.44-.39-.86-.59-1.28a2.52,2.52,0,0,1-.27-1,1.06,1.06,0,0,1,.14-.57s0,0,0,0a1.87,1.87,0,0,0,.32,1,12,12,0,0,1,.78,1.59,2.93,2.93,0,0,1,.21,1,1.4,1.4,0,0,1-.34.9c-.1.13-.21.24-.31.36S40.55,33.6,40.6,33.63Z"/><path class="cls-2" d="M22.26,47.84c.31-.23.64-.45,1-.66A18.15,18.15,0,0,1,33.8,44.33a16.91,16.91,0,0,1,4.64.87l1,.37,0-.06a5.22,5.22,0,0,0-1.43-.78A18.52,18.52,0,0,0,32,43.65a20.14,20.14,0,0,0-4.3.31,12.72,12.72,0,0,0-5.16,2c-.2.14-.26,0-.36-.1-2-3.14-3.8-6.37-5.66-9.57-.75-1.3-1.52-2.59-2.28-3.88-.06-.1-.1-.23-.26-.21l-.91.06c-.12,0-.16.06-.1.17l.1.18,4.61,7.89,4.27,7.3C22,47.93,22.09,48,22.26,47.84Z"/><path class="cls-2" d="M31.72,46.09a22.11,22.11,0,0,1,6.46-.3l1.14.12v0l-.06,0-.17-.06a14.85,14.85,0,0,0-4.59-.64,21.46,21.46,0,0,0-4.85.55,19.17,19.17,0,0,0-6.32,2.58h2.4A21.24,21.24,0,0,1,31.72,46.09Z"/><path class="cls-2" d="M16,38.45c-.64-1.11-1.29-2.22-1.94-3.32-.06-.1-.1-.23-.26-.22l-.34,0h0l-.38,0c-.19,0-.24.09-.13.27.2.34.4.68.59,1l6.95,12,0,0h1.2C19.75,45,17.92,41.73,16,38.45Z"/><path class="cls-2" d="M15.82,41l-2.19-3.75c-.07-.11-.12-.23-.29-.23h-.68c-.16,0-.18.07-.1.19l.08.14c1.24,2.1,2.48,4.21,3.72,6.32L19,48.26h1Z"/><path class="cls-2" d="M39.15,46.4a.14.14,0,0,0-.15-.08c-.35,0-.7,0-1-.05a22.77,22.77,0,0,0-4.48.38A27.12,27.12,0,0,0,28,48.26h3a34.62,34.62,0,0,1,6.36-1.62C37.94,46.55,38.54,46.48,39.15,46.4Z"/><path class="cls-2" d="M39.38,46.85l-.09,0h0l-.18,0a47.56,47.56,0,0,0-5.53,1.42H35.8l1.47-.58Z"/><path class="cls-2" d="M12.8,38.23c0-.06-.06-.2-.18-.1a1.1,1.1,0,0,0-.07.8l.76,1.34,4.59,8h.83l-5-8.39Z"/><path class="cls-2" d="M41.05,44.8a2.14,2.14,0,0,0-.33.62A25.3,25.3,0,0,1,56,38.62c0-.11-.08-.13-.13-.16l-3-1.93a.48.48,0,0,0-.4,0,18.82,18.82,0,0,0-3.8,1.33A18.47,18.47,0,0,0,41.05,44.8Z"/><path class="cls-2" d="M56,39.27a1.12,1.12,0,0,0-1-.18,31.42,31.42,0,0,0-8.75,2.76,17.59,17.59,0,0,0-4.57,3.05c-.25.24-.47.5-.74.78a.38.38,0,0,0,.3-.14,14.14,14.14,0,0,1,1.61-1.12,32.85,32.85,0,0,1,9.47-3.68A34.23,34.23,0,0,1,56.77,40c.06,0,.14,0,.16-.07s-.06-.1-.1-.13C56.54,39.62,56.26,39.47,56,39.27Z"/><path class="cls-2" d="M39.38,46.84h0c0,.21,0,.39.26.46a2.21,2.21,0,0,0,2.09-.66.79.79,0,0,1,.44-.29c4.73-1.32,9.49-2.51,14.27-3.64l1.71-.4s.11,0,.13-.07-.05-.1-.1-.13-.35-.2-.51-.31a.63.63,0,0,0-.56-.1c-3.26.87-6.54,1.68-9.77,2.67a39.55,39.55,0,0,0-5.21,1.88.36.36,0,0,1-.46-.06,1.5,1.5,0,0,0-1.21-.4,1.2,1.2,0,0,0-1.06,1,.18.18,0,0,1,0,0Z"/><path class="cls-2" d="M43.06,44.58a12.79,12.79,0,0,0-1.69,1.24.18.18,0,0,0,.19,0A21.84,21.84,0,0,1,45.24,44a54.28,54.28,0,0,1,10.51-2.92L57,40.83c.07,0,.23-.06.13-.13-.33-.21-.62-.55-1.09-.47a51.43,51.43,0,0,0-6.84,1.63A26.86,26.86,0,0,0,43.06,44.58Z"/><path class="cls-2" d="M57.24,41.24a1.53,1.53,0,0,0-1.11-.1,58.67,58.67,0,0,0-9,2.44,29.39,29.39,0,0,0-5,2.23.73.73,0,0,0-.32.28l.9-.38a86.22,86.22,0,0,1,9.66-3.09q2.39-.64,4.81-1.15c.07,0,.19,0,.19-.09S57.3,41.28,57.24,41.24Z"/><path class="cls-5" d="M22.92,37.3a2.34,2.34,0,0,0,.59.89,3,3,0,0,0,2,.76,3.14,3.14,0,0,0,1.09-.19,3,3,0,0,0,.94-.57,3.35,3.35,0,0,0,.38-.39,3.18,3.18,0,0,0,.3-.45,2.05,2.05,0,0,0,.28-1,2.4,2.4,0,0,0-.29-1,3.73,3.73,0,0,0-.63-.87,3.41,3.41,0,0,0-.41-.36l-.23-.16a1.72,1.72,0,0,0-.24-.14,3.34,3.34,0,0,0-.52-.21,3,3,0,0,0-.55-.13,2.43,2.43,0,0,0-1.15.1,2.33,2.33,0,0,0-1,.65,3.08,3.08,0,0,0-.79,2A2.92,2.92,0,0,0,22.92,37.3Zm.1-1a3.14,3.14,0,0,1,.3-.93,2.93,2.93,0,0,1,.56-.78,1.92,1.92,0,0,1,.77-.47,2.24,2.24,0,0,1,.91-.07,3.37,3.37,0,0,1,.92.25,4.69,4.69,0,0,1,.87.46,3,3,0,0,1,.73.68,1.7,1.7,0,0,1,.36.94,1.48,1.48,0,0,1-.33.94,2.64,2.64,0,0,1-.77.65,4.5,4.5,0,0,1-.89.41,4.78,4.78,0,0,1-1,.19,3.45,3.45,0,0,1-1,0l-.12,0-.12,0-.12,0-.11,0a1.9,1.9,0,0,1-.42-.26,1.75,1.75,0,0,1-.54-.83,2.21,2.21,0,0,1-.06-1Z"/><path class="cls-5" d="M40.92,33.18a1.4,1.4,0,0,0,.34-.9,2.93,2.93,0,0,0-.21-1,12,12,0,0,0-.78-1.59,1.87,1.87,0,0,1-.32-1s0,0,0,0a1.06,1.06,0,0,0-.14.57,2.52,2.52,0,0,0,.27,1c.2.43.43.84.59,1.28a2,2,0,0,1,.07,1.32,5.25,5.25,0,0,1-.39,1,.7.7,0,0,1-.44.33,5.19,5.19,0,0,1-.94.1,2,2,0,0,1-1.23-.35,7.17,7.17,0,0,1-.79-.65,4.79,4.79,0,0,0-1-.79,1.47,1.47,0,0,0-.76-.16.1.1,0,0,0-.11.05,1.75,1.75,0,0,1,.92.58c.26.26.53.53.81.78a4.41,4.41,0,0,0,1.24.85,1.42,1.42,0,0,0,1.08,0c.17-.06.34-.14.5-.23s.05,0,0,0a1.77,1.77,0,0,0,1-.72c-.05,0,0-.05,0-.09Z"/><path class="cls-5" d="M40.26,39.82a.37.37,0,0,0,.28.38,1.08,1.08,0,0,0,.59,0A5,5,0,0,0,43,39.44a15.69,15.69,0,0,0,2-1.58,4.3,4.3,0,0,0,.92-1.19A1,1,0,0,0,46,36a.34.34,0,0,0-.31-.29c.19.24.09.46,0,.68a3.73,3.73,0,0,1-.71,1,10.72,10.72,0,0,1-1.6,1.42,8.15,8.15,0,0,1-1.76,1,3,3,0,0,1-.86.22.49.49,0,0,1-.39-.12S40.3,39.81,40.26,39.82Z"/><path class="cls-5" d="M38.77,29.63a10.75,10.75,0,0,1-1,.87,24.54,24.54,0,0,1-2.18,1.35,3.55,3.55,0,0,0-.44.32.21.21,0,0,0,.17,0l.82-.36a10.41,10.41,0,0,0,2.24-1.46A6.86,6.86,0,0,0,39.6,29a.66.66,0,0,0,.13-.24c-.07,0-.1,0-.13.07C39.3,29.09,39,29.37,38.77,29.63Z"/><path class="cls-5" d="M35.23,31.53a1.69,1.69,0,0,0-.25.65l0,0a11.91,11.91,0,0,1,1.83-2,7.06,7.06,0,0,1,2.87-1.54s.1,0,.13-.06a1.64,1.64,0,0,0-.6.05,5.93,5.93,0,0,0-1.9.93,9.79,9.79,0,0,0-1.22,1A5.1,5.1,0,0,0,35.23,31.53Z"/><path class="cls-5" d="M40.34,39.38a.51.51,0,0,0,.09.44.06.06,0,0,0,0-.06.64.64,0,0,1,.22-.46,3.2,3.2,0,0,1,.58-.45,2,2,0,0,0,.75-.71.66.66,0,0,0,0-.59,1.24,1.24,0,0,1-.59.62,7.43,7.43,0,0,0-.61.44A1.49,1.49,0,0,0,40.34,39.38Z"/><path class="cls-5" d="M43.67,36.94a2.3,2.3,0,0,0,.85-.53c.32-.27.63-.59,1.11-.51h0c0-.05,0-.08-.08-.1a.65.65,0,0,0-.54-.09,2.24,2.24,0,0,0-1.08.59,1.58,1.58,0,0,1-.92.52c0,.06,0,.06.07.08A.75.75,0,0,0,43.67,36.94Z"/><path class="cls-5" d="M39.21,33.33a.52.52,0,0,0,.15.33.25.25,0,0,0,.41,0,.15.15,0,0,1,.13-.08.2.2,0,0,0,.18-.2.43.43,0,0,0-.43-.44h0s0,0,.07,0a.42.42,0,0,1,.2.23s0,.08,0,.1-.07,0-.1,0l0,0a.14.14,0,0,0-.17,0,.15.15,0,0,0-.08.17s0,.07,0,.12a.31.31,0,0,1-.08-.23,2,2,0,0,0-.17-.69.75.75,0,0,0-.4-.42,1.25,1.25,0,0,1,.31.82C39.2,33.07,39.2,33.2,39.21,33.33Z"/><path class="cls-5" d="M38.65,31.7c0-.1,0-.21,0-.31a.49.49,0,0,0-.15-.32.24.24,0,0,0-.4,0,.15.15,0,0,1-.14.09.17.17,0,0,0-.15.13.34.34,0,0,0,.09.36.38.38,0,0,0,.34.14l-.06,0a.35.35,0,0,1-.19-.23s0-.08,0-.1.06,0,.08,0l0,0a.15.15,0,0,0,.19,0,.15.15,0,0,0,.07-.18s0-.06,0-.09a.44.44,0,0,1,.08.26,1.78,1.78,0,0,0,.24.8.65.65,0,0,0,.34.29A1.32,1.32,0,0,1,38.65,31.7Z"/><path class="cls-5" d="M39.61,34.41a.58.58,0,0,1,.48.61.63.63,0,0,0,.15.39.76.76,0,0,0,.35.16.23.23,0,0,0,0,.43l.15.07a2.41,2.41,0,0,1,.74.32l0,0a.86.86,0,0,0-.35-.39,1.56,1.56,0,0,0-.43-.16c-.17,0-.19-.09-.11-.24l.26.06a.75.75,0,0,0-.17-.21.7.7,0,0,1-.28-.5.6.6,0,0,0-.26-.44.82.82,0,0,0-.57-.14S39.56,34.4,39.61,34.41Z"/><path class="cls-5" d="M39.61,34.35"/><path class="cls-5" d="M41.06,34.59a.42.42,0,0,1,.24.24,2,2,0,0,0,.12.23s0,.08.1.09,0-.18,0-.26h0c.21,0,.21,0,.2.27a1.18,1.18,0,0,0,0,.38.77.77,0,0,0,.31.47c0-.13-.08-.22-.07-.32a1,1,0,0,1,0-.28,1.61,1.61,0,0,0,0-.39c-.07-.23-.23-.28-.41-.13a.55.55,0,0,0-.17-.52,1.42,1.42,0,0,0-.32-.16.53.53,0,0,1-.36-.56s0-.05,0-.07l-.06.07a.34.34,0,0,1,0,0A.73.73,0,0,0,41.06,34.59Z"/><path class="cls-5" d="M40.6,33.63Z"/><path class="cls-5" d="M38,32.69a.31.31,0,0,1,.2-.2.48.48,0,0,0,.28-.37.62.62,0,0,1-.43.13l-.14,0a.61.61,0,0,0-.39.23.35.35,0,0,0-.06.37,0,0,0,0,1,0,0c0,.09,0,.07.07.06a.31.31,0,0,0,.29-.23c0-.06,0-.14.13-.14s-.09.11-.08.2A.14.14,0,0,0,38,32.69Z"/><path class="cls-5" d="M39.83,31.17a.55.55,0,0,0-.52,0,.74.74,0,0,0-.3.36c-.06.14-.08.31-.21.42a.47.47,0,0,0,.39-.15c.07-.08.13-.15.25-.14s.13,0,.11-.09-.08,0-.12,0l-.08,0c0-.06,0-.11.14-.09a.3.3,0,0,0,.36-.22S39.86,31.18,39.83,31.17Z"/><path class="cls-5" d="M41.08,36.35a.22.22,0,0,0,0,.24.56.56,0,0,0,.26.16,2.08,2.08,0,0,1,.5.25c-.12.06-.2.13-.16.26s.15.16.26.17h.09s.08.06.1,0,0-.08-.07-.1l-.06,0s-.14-.05-.13-.12.1-.06.16-.08l0,0a1.14,1.14,0,0,0-.75-.57c-.16,0-.18-.1-.1-.23A.13.13,0,0,0,41.08,36.35Z"/><path class="cls-5" d="M42,35.67Z"/><path class="cls-5" d="M42.22,35.77a.68.68,0,0,1,0,.11,1.14,1.14,0,0,0,.28.78c0,.06.08.09.1,0s0-.09.09-.09.05.07.07.1a.49.49,0,0,0,.07.2.06.06,0,0,0,.05,0s0,0,0,0,0-.16,0-.23a.22.22,0,0,0-.1-.22.18.18,0,0,0-.2,0l-.1.08a1.88,1.88,0,0,1-.09-.44,1,1,0,0,0-.06-.35.25.25,0,0,0-.23-.15.16.16,0,0,0-.16.13h0C42.17,35.64,42.2,35.65,42.22,35.77Z"/><path class="cls-5" d="M43,36.94a2.78,2.78,0,0,1-.8.61C42.42,37.61,43,37.19,43,36.94Z"/><path class="cls-2" d="M15.14,61.12a.77.77,0,0,0-.29-.16,1.36,1.36,0,0,0-.41-.06h-.82l-.36,3h.38l.14-1.11h.43a1.42,1.42,0,0,0,.49-.08,1,1,0,0,0,.36-.22.93.93,0,0,0,.22-.34,1.19,1.19,0,0,0,.08-.43.88.88,0,0,0-.06-.32A.64.64,0,0,0,15.14,61.12Zm-.21.9a.65.65,0,0,1-.14.23.61.61,0,0,1-.23.15.84.84,0,0,1-.31.05h-.43L14,61.21h.43a.79.79,0,0,1,.25,0,.47.47,0,0,1,.18.1.44.44,0,0,1,.1.16.63.63,0,0,1,0,.21.87.87,0,0,1,0,.29Z"/><path class="cls-2" d="M17.24,61.45h.27l-.22-.5a.16.16,0,0,0,0-.07l-.09,0h-.34l.38.53Z"/><path class="cls-2" d="M16.61,63a4.38,4.38,0,0,0,.67-.11,1.56,1.56,0,0,0,.41-.16.52.52,0,0,0,.21-.21.56.56,0,0,0,.06-.25.42.42,0,0,0,0-.16.46.46,0,0,0-.11-.16.58.58,0,0,0-.19-.12.75.75,0,0,0-.28,0,.93.93,0,0,0-.31.05,1,1,0,0,0-.27.14,1.07,1.07,0,0,0-.21.21,1.39,1.39,0,0,0-.16.27,1.55,1.55,0,0,0-.1.3,1.53,1.53,0,0,0,0,.32,1.09,1.09,0,0,0,.05.35.75.75,0,0,0,.15.27.66.66,0,0,0,.24.17.83.83,0,0,0,.32.06l.25,0a.93.93,0,0,0,.22-.08,1.18,1.18,0,0,0,.21-.13l.21-.19-.09-.11a.09.09,0,0,0-.07,0l-.07,0-.07.05-.09.07-.1.07-.14.05-.18,0a.45.45,0,0,1-.36-.15.65.65,0,0,1-.12-.42v0S16.61,63,16.61,63Zm.13-.52a.88.88,0,0,1,.14-.22.62.62,0,0,1,.19-.15.53.53,0,0,1,.24-.05l.14,0,.09.06a.21.21,0,0,1,.05.07.22.22,0,0,1,0,.08.29.29,0,0,1-.17.27,1.25,1.25,0,0,1-.3.1,4.1,4.1,0,0,1-.51.09,1.32,1.32,0,0,1,.09-.26Z"/><path class="cls-2" d="M19.83,61.92a1.44,1.44,0,0,0-.3.45l0-.38a.1.1,0,0,1,0,0v-.06a.22.22,0,0,0,0,0,.1.1,0,0,0,0-.08.14.14,0,0,0-.09,0h-.18L19,63.87h.36l.12-1a1.62,1.62,0,0,1,.26-.59.46.46,0,0,1,.36-.2.51.51,0,0,1,.19,0l.07-.35a.43.43,0,0,0-.17,0A.51.51,0,0,0,19.83,61.92Z"/><path class="cls-2" d="M21.53,63a4.38,4.38,0,0,0,.67-.11,1.56,1.56,0,0,0,.41-.16.52.52,0,0,0,.21-.21.56.56,0,0,0,.06-.25.42.42,0,0,0,0-.16.47.47,0,0,0-.11-.16.59.59,0,0,0-.19-.12.75.75,0,0,0-.27,0,.94.94,0,0,0-.31.05,1,1,0,0,0-.27.14,1,1,0,0,0-.21.21,1.34,1.34,0,0,0-.16.27,1.49,1.49,0,0,0-.1.3,1.53,1.53,0,0,0,0,.32,1.06,1.06,0,0,0,.05.35.77.77,0,0,0,.15.27.68.68,0,0,0,.24.17.83.83,0,0,0,.32.06l.25,0a.9.9,0,0,0,.22-.08,1.15,1.15,0,0,0,.21-.13l.21-.19-.09-.11a.09.09,0,0,0-.07,0l-.07,0-.07.05-.09.07-.1.07-.14.05-.18,0a.45.45,0,0,1-.36-.15.65.65,0,0,1-.12-.42v0S21.53,63,21.53,63Zm.13-.52a.85.85,0,0,1,.14-.22.62.62,0,0,1,.19-.15.53.53,0,0,1,.24-.05l.14,0,.09.06a.19.19,0,0,1,.05.07.2.2,0,0,1,0,.08.32.32,0,0,1,0,.14.33.33,0,0,1-.14.13,1.24,1.24,0,0,1-.3.1,4.08,4.08,0,0,1-.51.09,1.32,1.32,0,0,1,.09-.26Z"/><path class="cls-2" d="M25.89,63a4.42,4.42,0,0,0,.67-.11,1.57,1.57,0,0,0,.41-.16.52.52,0,0,0,.21-.21.57.57,0,0,0,.06-.25.42.42,0,0,0,0-.16.46.46,0,0,0-.11-.16.57.57,0,0,0-.19-.12.75.75,0,0,0-.28,0,.93.93,0,0,0-.31.05,1,1,0,0,0-.27.14,1.07,1.07,0,0,0-.21.21,1.33,1.33,0,0,0-.16.27,1.49,1.49,0,0,0-.1.3,1.6,1.6,0,0,0,0,.32,1.09,1.09,0,0,0,.05.35.77.77,0,0,0,.15.27.67.67,0,0,0,.24.17.83.83,0,0,0,.32.06l.25,0a.91.91,0,0,0,.22-.08,1.18,1.18,0,0,0,.21-.13l.21-.19-.09-.11a.09.09,0,0,0-.07,0l-.07,0-.07.05-.09.07-.1.07-.14.05-.18,0a.45.45,0,0,1-.36-.15A.64.64,0,0,1,25.9,63V63Zm.13-.52a.91.91,0,0,1,.14-.22.61.61,0,0,1,.19-.15A.52.52,0,0,1,26.6,62l.14,0,.09.06a.2.2,0,0,1,.05.07.2.2,0,0,1,0,.08.29.29,0,0,1-.17.27,1.23,1.23,0,0,1-.3.1,4.07,4.07,0,0,1-.51.09,1.32,1.32,0,0,1,.09-.27Z"/><path class="cls-2" d="M26.82,60.9a.19.19,0,0,0-.06.07l-.34.5h.28l.06,0,.51-.53h-.35Z"/><path class="cls-2" d="M28.84,62.33a.77.77,0,0,1,.22-.21.52.52,0,0,1,.27-.08.48.48,0,0,1,.17,0l.11.06.07.06.06,0h0l0,0,.12-.14a.73.73,0,0,0-.25-.21.74.74,0,0,0-.35-.07.88.88,0,0,0-.43.1,1.09,1.09,0,0,0-.34.29,1.36,1.36,0,0,0-.22.42,1.52,1.52,0,0,0-.08.49,1.18,1.18,0,0,0,0,.35.77.77,0,0,0,.14.27.65.65,0,0,0,.23.18.8.8,0,0,0,.32.06l.22,0a.78.78,0,0,0,.2-.06,1,1,0,0,0,.19-.13l.21-.2-.1-.12a.09.09,0,0,0-.07,0l-.06,0-.06,0-.08.06-.1.06a.62.62,0,0,1-.29.07.44.44,0,0,1-.19,0,.4.4,0,0,1-.14-.11.49.49,0,0,1-.09-.18.84.84,0,0,1,0-.23,1.34,1.34,0,0,1,.06-.39A1.06,1.06,0,0,1,28.84,62.33Z"/><path class="cls-2" d="M32.5,62a.69.69,0,0,0-.25-.17.81.81,0,0,0-.31-.06.9.9,0,0,0-.42.1,1.06,1.06,0,0,0-.34.28,1.37,1.37,0,0,0-.23.41,1.47,1.47,0,0,0-.08.5,1.08,1.08,0,0,0,.06.37.79.79,0,0,0,.16.27.7.7,0,0,0,.25.17.82.82,0,0,0,.31.06.9.9,0,0,0,.42-.1,1.05,1.05,0,0,0,.34-.28,1.36,1.36,0,0,0,.23-.41,1.5,1.5,0,0,0,.08-.5,1.09,1.09,0,0,0-.06-.37A.79.79,0,0,0,32.5,62Zm-.2,1a1.13,1.13,0,0,1-.13.31.73.73,0,0,1-.21.22.48.48,0,0,1-.27.08.39.39,0,0,1-.33-.15.71.71,0,0,1-.11-.44,1.48,1.48,0,0,1,0-.38,1.15,1.15,0,0,1,.13-.31.75.75,0,0,1,.21-.22.49.49,0,0,1,.28-.08.39.39,0,0,1,.33.15.7.7,0,0,1,.11.44A1.44,1.44,0,0,1,32.3,63Z"/><path class="cls-2" d="M35.19,62.87a1.81,1.81,0,0,1-.14.3,1.21,1.21,0,0,1-.18.23.77.77,0,0,1-.19.15.43.43,0,0,1-.19.05.24.24,0,0,1-.2-.08.42.42,0,0,1-.06-.25v-.07a.29.29,0,0,1,0-.08l.16-1.33H34l-.16,1.33s0,.06,0,.09,0,.06,0,.08a.7.7,0,0,0,.13.46.44.44,0,0,0,.36.16.76.76,0,0,0,.43-.14,1.32,1.32,0,0,0,.37-.4v.2a.33.33,0,0,1,0,.08s0,.05,0,.08a.07.07,0,0,0,0,0,.1.1,0,0,0,0,.09.15.15,0,0,0,.1,0h.18l.25-2.09h-.37Z"/><path class="cls-2" d="M37.63,61.09h-.19l-.06,0a.09.09,0,0,0,0,.05l-.16.65-.32,0a.15.15,0,0,1,0,0v0a.1.1,0,0,1,0,0,0,0,0,0,0,0,0,.06.06,0,0,0,0,0l0,0h.23l-.13,1,0,.16v.19a.43.43,0,0,0,.12.31.44.44,0,0,0,.31.11.69.69,0,0,0,.26-.05.74.74,0,0,0,.23-.14l-.08-.18,0,0h0l0,0-.05,0-.07,0-.1,0a.18.18,0,0,1-.13-.05.22.22,0,0,1,0-.16.12.12,0,0,1,0,0v0s0,0,0-.08l0-.14.13-1h.55l0-.27h-.55Z"/><path class="cls-2" d="M39.38,63a4.42,4.42,0,0,0,.67-.11,1.57,1.57,0,0,0,.41-.16.52.52,0,0,0,.21-.21.57.57,0,0,0,.06-.25.42.42,0,0,0,0-.16.46.46,0,0,0-.11-.16.57.57,0,0,0-.19-.12.75.75,0,0,0-.28,0,.93.93,0,0,0-.31.05,1,1,0,0,0-.27.14,1.07,1.07,0,0,0-.21.21,1.33,1.33,0,0,0-.16.27,1.49,1.49,0,0,0-.1.3A1.6,1.6,0,0,0,39,63a1.09,1.09,0,0,0,.05.35.77.77,0,0,0,.15.27.67.67,0,0,0,.24.17.83.83,0,0,0,.32.06l.25,0a.91.91,0,0,0,.22-.08,1.18,1.18,0,0,0,.21-.13l.21-.19-.09-.11a.09.09,0,0,0-.07,0l-.07,0-.07.05-.09.07-.1.07-.14.05-.18,0a.45.45,0,0,1-.36-.15.64.64,0,0,1-.12-.42V63Zm.13-.52a.91.91,0,0,1,.14-.22.63.63,0,0,1,.19-.15.52.52,0,0,1,.24-.05l.14,0,.09.06a.21.21,0,0,1,.05.07.2.2,0,0,1,0,.08.29.29,0,0,1-.17.27,1.23,1.23,0,0,1-.3.1,4.07,4.07,0,0,1-.51.09,1.32,1.32,0,0,1,.09-.26Z"/><path class="cls-2" d="M44.74,61.75a.78.78,0,0,0-.43.14,1.32,1.32,0,0,0-.38.42l0-.41a.11.11,0,0,0-.09-.12h-.21l-.25,2.1h.37l.12-1.06a1.63,1.63,0,0,1,.14-.31,1.23,1.23,0,0,1,.18-.24.81.81,0,0,1,.2-.15.44.44,0,0,1,.2-.05.23.23,0,0,1,.2.08.42.42,0,0,1,.06.25v.07a.36.36,0,0,1,0,.08l-.16,1.33h.37l.16-1.33s0-.06,0-.09,0-.06,0-.09a.71.71,0,0,0-.13-.46A.44.44,0,0,0,44.74,61.75Z"/><path class="cls-2" d="M48,62a.68.68,0,0,0-.24-.17.81.81,0,0,0-.31-.06.9.9,0,0,0-.42.1,1.06,1.06,0,0,0-.34.28,1.37,1.37,0,0,0-.23.41,1.47,1.47,0,0,0-.08.5,1.08,1.08,0,0,0,.06.37.77.77,0,0,0,.16.27.7.7,0,0,0,.24.17.83.83,0,0,0,.31.06.9.9,0,0,0,.42-.1,1.06,1.06,0,0,0,.34-.28,1.36,1.36,0,0,0,.23-.41,1.48,1.48,0,0,0,.08-.5,1.09,1.09,0,0,0-.06-.37A.79.79,0,0,0,48,62Zm-.2,1a1.1,1.1,0,0,1-.13.31.72.72,0,0,1-.21.22.48.48,0,0,1-.28.08.39.39,0,0,1-.33-.15.71.71,0,0,1-.11-.44,1.44,1.44,0,0,1,0-.38,1.11,1.11,0,0,1,.13-.31.73.73,0,0,1,.21-.22A.49.49,0,0,1,47.4,62a.39.39,0,0,1,.33.15.71.71,0,0,1,.11.44A1.48,1.48,0,0,1,47.8,63Z"/><path class="cls-2" d="M50.69,62.87a1.65,1.65,0,0,1-.14.3,1.16,1.16,0,0,1-.17.23.77.77,0,0,1-.19.15.43.43,0,0,1-.2.05.23.23,0,0,1-.2-.08.42.42,0,0,1-.06-.25v-.07a.34.34,0,0,1,0-.08l.16-1.33h-.37l-.16,1.33s0,.06,0,.09,0,.06,0,.08a.7.7,0,0,0,.13.46.44.44,0,0,0,.36.16.76.76,0,0,0,.43-.14,1.32,1.32,0,0,0,.37-.4v.2a.33.33,0,0,1,0,.08.32.32,0,0,0,0,.08v0a.1.1,0,0,0,0,.09.15.15,0,0,0,.1,0h.18l.25-2.09h-.38Z"/><path class="cls-2" d="M53.16,61.75a.85.85,0,0,0-.32.06.73.73,0,0,0-.24.15.65.65,0,0,0-.15.22.64.64,0,0,0-.05.26.42.42,0,0,0,.06.24.51.51,0,0,0,.16.15l.21.09L53,63a.51.51,0,0,1,.16.1.22.22,0,0,1,.06.17.35.35,0,0,1,0,.15.34.34,0,0,1-.09.12.42.42,0,0,1-.14.08.53.53,0,0,1-.18,0,.55.55,0,0,1-.19,0l-.13-.07-.08-.06-.07,0H52.3l0,0-.09.14a.74.74,0,0,0,.25.18.85.85,0,0,0,.35.07.9.9,0,0,0,.34-.06.82.82,0,0,0,.26-.16.69.69,0,0,0,.22-.51.42.42,0,0,0-.06-.24.54.54,0,0,0-.16-.15l-.21-.1-.21-.08a.59.59,0,0,1-.16-.1.2.2,0,0,1-.06-.16.28.28,0,0,1,0-.13.31.31,0,0,1,.09-.1A.42.42,0,0,1,53,62a.59.59,0,0,1,.34,0l.12.05.08.05.06,0h0l0,0,.09-.13a.75.75,0,0,0-.25-.17A.82.82,0,0,0,53.16,61.75Z"/><path class="cls-2" d="M55.12,63.46,55,63.4a.27.27,0,0,0-.2,0l-.08.06a.25.25,0,0,0-.05.08.26.26,0,0,0,0,.1.25.25,0,0,0,0,.1.24.24,0,0,0,.14.14.27.27,0,0,0,.2,0l.08-.05a.28.28,0,0,0,.06-.08.25.25,0,0,0,0-.1.26.26,0,0,0,0-.1A.27.27,0,0,0,55.12,63.46Z"/><polygon class="cls-3" points="37.63 57.86 37.63 53.17 39.72 53.17 39.72 51.3 37.63 51.3 37.63 49.84 35.76 49.84 35.76 51.3 33.57 51.3 33.57 53.17 35.76 53.17 35.76 57.86 37.63 57.86"/><path class="cls-1" d="M231,25.19a3.71,3.71,0,0,0-1.37-1,4.72,4.72,0,0,0-1.84-.34,4.8,4.8,0,0,0-1.86.34,3.7,3.7,0,0,0-1.37,1,4.37,4.37,0,0,0-.86,1.56,7.41,7.41,0,0,0,0,4.16,4.39,4.39,0,0,0,.86,1.56,3.64,3.64,0,0,0,1.37,1,4.88,4.88,0,0,0,1.86.34,4.8,4.8,0,0,0,1.84-.34,3.64,3.64,0,0,0,1.37-1,4.39,4.39,0,0,0,.86-1.56,7.41,7.41,0,0,0,0-4.16A4.37,4.37,0,0,0,231,25.19Z"/><rect class="cls-2" x="135.75" y="21.07" width="3.63" height="15.53"/><path class="cls-2" d="M152.42,29.29c0,.25,0,.51,0,.8s0,.57.06.87l-7.38-9.33a3,3,0,0,0-.27-.29,1,1,0,0,0-.24-.16,1,1,0,0,0-.29-.08l-.39,0H142V36.6h3.18V28.28c0-.23,0-.47,0-.73s0-.52-.05-.8L152.47,36a1.49,1.49,0,0,0,.55.47,1.73,1.73,0,0,0,.7.13h1.87V21.07h-3.17Z"/><polygon class="cls-2" points="156.88 23.93 161.25 23.93 161.25 36.6 164.85 36.6 164.85 23.93 169.23 23.93 169.23 21.07 156.88 21.07 156.88 23.93"/><polygon class="cls-2" points="174.13 30.13 179.01 30.13 179.01 27.47 174.13 27.47 174.13 23.84 180.51 23.84 180.51 21.07 170.5 21.07 170.5 36.6 180.51 36.6 180.51 33.83 174.13 33.83 174.13 30.13"/><path class="cls-2" d="M195.9,21.07h-3.18v8.22c0,.25,0,.51,0,.8s0,.57.06.87l-7.38-9.33a3.28,3.28,0,0,0-.27-.29,1,1,0,0,0-.25-.16,1,1,0,0,0-.29-.08l-.4,0h-1.9V36.6h3.18V28.28c0-.23,0-.47,0-.73s0-.52-.05-.8L192.77,36a1.49,1.49,0,0,0,.55.47,1.74,1.74,0,0,0,.7.13h1.87Z"/><rect class="cls-2" x="214.18" y="21.07" width="3.63" height="15.53"/><path class="cls-2" d="M233.58,23.19A7.57,7.57,0,0,0,231,21.51a8.59,8.59,0,0,0-3.3-.62,8.72,8.72,0,0,0-3.31.61,7.6,7.6,0,0,0-2.55,1.67,7.47,7.47,0,0,0-1.64,2.52,8.74,8.74,0,0,0,0,6.27,7.41,7.41,0,0,0,4.19,4.2,9.28,9.28,0,0,0,6.6,0,7.48,7.48,0,0,0,2.54-1.68,7.56,7.56,0,0,0,1.64-2.52,8.69,8.69,0,0,0,0-6.26A7.49,7.49,0,0,0,233.58,23.19Zm-1.77,7.72a4.39,4.39,0,0,1-.86,1.56,3.64,3.64,0,0,1-1.37,1,4.8,4.8,0,0,1-1.84.34,4.88,4.88,0,0,1-1.86-.34,3.64,3.64,0,0,1-1.37-1,4.39,4.39,0,0,1-.86-1.56,7.41,7.41,0,0,1,0-4.16,4.37,4.37,0,0,1,.86-1.56,3.7,3.7,0,0,1,1.37-1,4.8,4.8,0,0,1,1.86-.34,4.72,4.72,0,0,1,1.84.34,3.71,3.71,0,0,1,1.37,1,4.37,4.37,0,0,1,.86,1.56,7.41,7.41,0,0,1,0,4.16Z"/><path class="cls-2" d="M247.7,29.29c0,.25,0,.51,0,.8s0,.57.06.87l-7.38-9.33a3,3,0,0,0-.27-.29,1,1,0,0,0-.25-.16,1,1,0,0,0-.29-.08l-.4,0h-1.9V36.6h3.18V28.28c0-.23,0-.47,0-.73s0-.52-.05-.8L247.74,36a1.49,1.49,0,0,0,.55.47,1.74,1.74,0,0,0,.71.13h1.87V21.07H247.7Z"/><path class="cls-2" d="M262.69,30a3.66,3.66,0,0,0-.78-1.17,4.25,4.25,0,0,0-1.11-.79,11.73,11.73,0,0,0-1.27-.54q-.65-.23-1.27-.42a8.15,8.15,0,0,1-1.11-.42,2.57,2.57,0,0,1-.78-.53,1.07,1.07,0,0,1-.3-.78,1.47,1.47,0,0,1,.5-1.17,2.25,2.25,0,0,1,1.51-.43,3.3,3.3,0,0,1,1,.15,5.25,5.25,0,0,1,.82.35l.64.35a1.1,1.1,0,0,0,.53.15.76.76,0,0,0,.45-.13,1.36,1.36,0,0,0,.34-.39l.9-1.67a5.18,5.18,0,0,0-.94-.69,7.15,7.15,0,0,0-1.13-.52A7.37,7.37,0,0,0,259.4,21a8.47,8.47,0,0,0-1.39-.11,6.2,6.2,0,0,0-2.27.39,5.05,5.05,0,0,0-1.67,1,4.37,4.37,0,0,0-1,1.48,4.32,4.32,0,0,0-.35,1.7,4.94,4.94,0,0,0,.3,1.83,3.75,3.75,0,0,0,.78,1.24,4,4,0,0,0,1.1.8,9.5,9.5,0,0,0,1.28.5l1.27.38a7.21,7.21,0,0,1,1.1.39,2.32,2.32,0,0,1,.78.57,1.3,1.3,0,0,1,.3.88,1.64,1.64,0,0,1-.54,1.37,2.4,2.4,0,0,1-1.53.43,3.54,3.54,0,0,1-1.25-.21,5.85,5.85,0,0,1-.94-.45l-.74-.45a1.21,1.21,0,0,0-.65-.21.93.93,0,0,0-.46.12.89.89,0,0,0-.33.31l-1.07,1.69a5.57,5.57,0,0,0,1.08.83,8.36,8.36,0,0,0,1.32.65,8.66,8.66,0,0,0,1.46.42,7.52,7.52,0,0,0,1.48.15,6.55,6.55,0,0,0,2.36-.4,5.06,5.06,0,0,0,1.75-1.1,4.7,4.7,0,0,0,1.05-1.62,5.38,5.38,0,0,0,.37-2A4.13,4.13,0,0,0,262.69,30Z"/><polygon class="cls-3" points="207.54 35.6 207.54 26.23 211.71 26.23 211.71 22.48 207.54 22.48 207.54 19.57 203.8 19.57 203.8 22.48 199.43 22.48 199.43 26.23 203.8 26.23 203.8 35.6 207.54 35.6"/><path class="cls-2" d="M95.81,19.89h-.47a1,1,0,0,0-.36.06.87.87,0,0,0-.29.19,1.53,1.53,0,0,0-.25.36l-4.58,9q-.25.48-.48,1c-.16.34-.3.69-.44,1-.14-.35-.29-.7-.44-1s-.31-.66-.47-1L83.39,20.5a1.53,1.53,0,0,0-.25-.36.87.87,0,0,0-.29-.19,1,1,0,0,0-.36-.06H78.84V37.78h3.66V27.48q0-.36,0-.78c0-.28,0-.57-.07-.85l4.77,9.22a1.56,1.56,0,0,0,.6.65,1.67,1.67,0,0,0,.85.22h.57a1.67,1.67,0,0,0,.85-.22,1.55,1.55,0,0,0,.6-.65l4.74-9.2q-.07.87-.07,1.62v10.3H99V19.89Z"/><polygon class="cls-2" points="105.86 34.58 105.86 30.32 111.48 30.32 111.48 27.25 105.86 27.25 105.86 23.07 113.2 23.07 113.2 19.87 101.68 19.87 101.68 37.78 113.2 37.78 113.2 34.58 105.86 34.58"/><path class="cls-2" d="M122.58,27.25q-.75-.26-1.47-.48a9.35,9.35,0,0,1-1.28-.47,3,3,0,0,1-.9-.62,1.25,1.25,0,0,1-.34-.9,1.69,1.69,0,0,1,.57-1.34,2.59,2.59,0,0,1,1.74-.5,3.76,3.76,0,0,1,1.2.18,6.12,6.12,0,0,1,.94.4l.74.4a1.28,1.28,0,0,0,.61.18.87.87,0,0,0,.52-.15,1.57,1.57,0,0,0,.39-.44l1-1.93a6.11,6.11,0,0,0-1.09-.79,8.17,8.17,0,0,0-1.31-.6,8.53,8.53,0,0,0-1.48-.38,9.63,9.63,0,0,0-1.6-.13,7.11,7.11,0,0,0-2.62.45,5.88,5.88,0,0,0-1.93,1.2A5.06,5.06,0,0,0,115.12,23a5,5,0,0,0-.41,2,5.67,5.67,0,0,0,.34,2.11,4.31,4.31,0,0,0,.9,1.42,4.62,4.62,0,0,0,1.27.92,10.78,10.78,0,0,0,1.46.59l1.46.44a8.49,8.49,0,0,1,1.27.45,2.69,2.69,0,0,1,.9.66,1.5,1.5,0,0,1,.34,1,1.9,1.9,0,0,1-.62,1.58,2.76,2.76,0,0,1-1.76.5,4.12,4.12,0,0,1-1.46-.23,7,7,0,0,1-1.08-.52l-.85-.52a1.39,1.39,0,0,0-.74-.23,1.07,1.07,0,0,0-.53.14,1,1,0,0,0-.38.36L114,35.61a6.43,6.43,0,0,0,1.25,1,9.75,9.75,0,0,0,1.52.74,10.2,10.2,0,0,0,1.68.49,8.74,8.74,0,0,0,1.7.17,7.52,7.52,0,0,0,2.72-.46,5.76,5.76,0,0,0,2-1.27,5.41,5.41,0,0,0,1.25-1.89,6.21,6.21,0,0,0,.42-2.32,4.79,4.79,0,0,0-.34-1.91,4.3,4.3,0,0,0-.9-1.35,4.9,4.9,0,0,0-1.28-.91A12.94,12.94,0,0,0,122.58,27.25Z"/></g></g></svg>