<?xml version="1.0" encoding="utf-8"?>
<!-- Generator: Adobe Illustrator 21.0.0, SVG Export Plug-In . SVG Version: 6.00 Build 0)  -->
<svg version="1.1" id="Calque_1" xmlns="http://www.w3.org/2000/svg" xmlns:xlink="http://www.w3.org/1999/xlink" x="0px" y="0px"
	 viewBox="0 0 312 311.9" style="enable-background:new 0 0 312 311.9;" xml:space="preserve">
<style type="text/css">
	.st0{fill:none;}
	.st1{fill:#F79420;}
	.st2{fill:#29AAE2;}
	.st3{fill:#FFFFFF;}
	.st4{fill:#E6E6E6;}
</style>
<path class="st0" d="M283.9,257.9L283.9,257.9l-0.2-0.1v0c0.1,0.1,0.3,0.2,0.5,0.3c0,0,0,0-0.1-0.1
	C284.1,258,283.9,257.9,283.9,257.9z"/>
<path class="st1" d="M164.5,69.2c0.1,6.7-2.7,12.6-8.3,17.6c-1.9,1.7-4,3.2-6.2,4.5c-0.2,0.1-0.3,0.2-0.5,0.3l1.5,1.3l4.9,4.3
	l0.9,0.8l4.1,3.6c4.3,3.8,5.2,9.6,2.3,14.6c0,0.1,0,0.3,0,0.4v51.7c-1.6,0.8-3.2,1.5-4.8,2.4c-3.7,2-7.2,4.2-10.6,6.6
	c-0.8,0.6-1.6,1.2-2.4,1.8c-0.8,0.6-1.6,1.3-2.3,1.9c-1.6,1.3-3,2.7-4.5,4.1c-0.7,0.7-1.4,1.5-2.1,2.2c-0.7,0.7-1.3,1.5-2,2.3
	c-1.3,1.6-2.5,3.3-3.6,5c-1,1.6-1.9,3.2-2.7,4.9c-0.4-0.4-0.7-0.9-1.1-1.3c-1.4-1.6-2.9-3.2-4.4-4.8c-1.6-1.6-3.2-3.1-4.9-4.7
	c-1.2-1-2.4-2-3.6-3c2.4-3.1,6.3-5.6,11.3-7.4V96.7c0-0.2,0-0.4,0-0.4c-2.4-4-2.2-9,0.5-12.8c1.1-1.5,2.6-2.6,4.3-3.2
	c-4.5-7.2-6.6-14.4-6.3-22c0-0.7,0.1-1.3,0.1-2H34.6c-4,0-7.2,3.2-7.2,7.2v124.2c-0.2,0.5-0.2,1.1-0.2,1.7c0,0.3,0.1,0.5,0.2,0.7
	v4.9h-0.2l-0.4,0.1l-0.3,0.1l-0.4,0.1c-0.1,0-0.3,0.1-0.5,0.2c-0.2,0.1-0.4,0.2-0.5,0.3c-0.5,0.3-0.9,0.7-1.2,1.2
	c-0.4,0.5-0.6,1.1-0.6,1.7c0,0.2,0,0.5,0,0.7c0,0.2,0,0.4,0.1,0.6c0.1,0.3,0.1,0.5,0.2,0.8c0,0.1,0.1,0.2,0.1,0.3
	c0,0.1,0.1,0.2,0.1,0.2l0.3,0.4l0.5,0.8l0.9,1.3l2,3v4.1h-0.1c-0.1,0-0.3,0-0.4,0.1c-0.4,0.1-0.8,0.2-1.2,0.3
	c-0.8,0.3-1.4,0.8-1.9,1.5c-0.3,0.4-0.5,0.9-0.6,1.5c-0.1,0.4-0.1,0.8,0,1.2c0,0.3,0.1,0.5,0.2,0.8c0.1,0.2,0.1,0.4,0.2,0.6
	c0.1,0.3,0.3,0.5,0.4,0.8l0.5,0.6l0.9,1.3l2,3l-0.9,0.1l-0.8,0.1h-0.4c-0.3,0-0.7,0-1,0.1c-0.3,0.1-0.6,0.1-0.9,0.3
	c-0.5,0.2-0.9,0.5-1.3,0.9c-0.3,0.3-0.5,0.5-0.6,0.9c-0.2,0.3-0.3,0.6-0.4,1c-0.1,0.3-0.1,0.6-0.1,0.9c0,0.2,0,0.4,0.1,0.6
	c0.1,0.5,0.2,0.9,0.5,1.4c0.1,0.2,0.2,0.3,0.2,0.4l0.1,0.2l0.6,0.8l0,0c-0.1,0.2-0.3,0.3-0.4,0.5l-0.2,0.3c-0.1,0.1-0.1,0.2-0.2,0.3
	l-0.1,0.2c-0.1,0.2-0.1,0.3-0.2,0.5l-0.1,0.4l-0.1,0.3c-0.1,0.8-0.2,1.6-0.2,2.4c0,0.4,0,0.8,0.1,1.2c0,0.2,0.1,0.4,0.1,0.7
	c0,0.1,0.1,0.3,0.1,0.4c0,0.2,0.1,0.3,0.2,0.5c0.1,0.2,0.1,0.3,0.2,0.4c0,0.1,0.1,0.2,0.2,0.3l0.1,0.2l0.2,0.4l0.5,0.7l0.9,1.4
	l1.8,2.8l2.1,3.2v35.9c0,4,3.2,7.2,7.2,7.2h20.6L29,244.5c-1.5-2.6-2.9-5.1-4.4-7.7c-0.5-0.8-0.2-4,0.4-4.5c0.6-0.5,0.8,0.2,1,0.6
	c1.9,3.1,3.7,6.3,5.6,9.4l28.4,48h1.6c-5.1-8.7-10.2-17.4-15.2-26.2C39.3,252,32.2,240,25.1,228l-0.5-0.8c-0.4-0.7-0.3-1.1,0.6-1.1
	c1.3,0,2.6,0,3.9,0c0.9,0,1.3,0.7,1.6,1.3c4.2,7.2,8.4,14.3,12.5,21.5c8.1,13.8,16.1,27.6,24.2,41.4h2.8l-0.1-0.2l-39.7-68.5
	c-1.1-1.9-2.2-3.9-3.4-5.8c-0.6-1-0.3-1.4,0.8-1.5c1.4-0.1,2.8-0.2,4.2-0.3c0.9-0.1,1.2,0.7,1.5,1.2c3.7,6.3,7.4,12.7,11.1,19
	c10.8,18.7,21.3,37.7,32.6,56.1h9.1c11-7.3,23.3-11.8,36.2-14.8c9.1-2.1,18.4-3.2,27.7-3.2c8.9,0,17.7,0.9,26.3,3.7
	c0.3,0.1,0.7,0.2,1,0.3c0.1,0.1,0.2,0.1,0.4,0.2l-0.1,0.3c-2.2-0.2-4.3-0.4-6.5-0.7c-12.3-1.3-24.8-0.7-37,1.7
	c-12,2.4-23.5,6.6-34.3,12.4h12.8c10.2-4.2,20.8-7.3,31.6-9.2c8.4-1.6,17-2.3,25.6-2.1c2,0,4,0.2,6,0.3c0.4-0.1,0.7,0.2,0.8,0.5
	c-3.5,0.5-6.9,0.8-10.3,1.3c-12.4,1.9-24.6,5-36.4,9.3h14.8c10.4-3.3,20.9-6,31.6-8.1c0.5-0.2,1.1-0.2,1.6,0l0,0
	c0.8-3.3,2.7-5.6,6.2-6c2.5-0.3,5,0.6,6.9,2.3c0.9,0.8,1.6,0.8,2.6,0.3c9.6-4.5,19.7-7.7,29.8-10.7c18.5-5.6,37.2-10.3,55.9-15.3
	c1.1-0.3,2.3-0.1,3.2,0.6c0.9,0.7,2,1.2,2.9,1.8c0.3,0.2,0.7,0.3,0.6,0.8c-0.1,0.3-0.5,0.3-0.8,0.4l-9.8,2.3
	c-27.3,6.4-54.5,13.2-81.6,20.8c-1,0.3-1.9,0.8-2.5,1.7c-2.4,3.2-8.1,4.8-12,3.8c-1.5-0.4-1.6-1.4-1.5-2.6l0,0l0,0
	c-4,1.6-8.1,3.2-12.1,4.8c-2.8,1.1-5.6,2.2-8.4,3.3h109.8c4,0,7.2-3.2,7.2-7.2v-19.4c2.3-0.7,4.5-1.5,6.8-2.3l3.4-1.2l0.9-0.3
	l0.4-0.2l0.1,0h0.1c0,0,0,0-0.1,0c0,0,0,0,0.1,0c0.3-0.1,0.6-0.1,0.8-0.3c0.6-0.2,1.1-0.6,1.5-1.1c0.4-0.5,0.7-1.1,0.9-1.7
	c0.1-0.3,0.1-0.5,0.1-0.8c0-1-0.4-2-1.2-2.7c-0.2-0.2-0.5-0.4-0.8-0.6c-0.1-0.1-0.2-0.1-0.3-0.1c0,0,0.1,0,0,0l-0.1-0.1
	c-0.6-0.3-1.2-0.6-1.7-0.8l-0.7-0.3l-0.2-0.1c0-0.1,0-0.3,0-0.4c0-0.3-0.1-0.5-0.1-0.8c-0.1-0.3-0.2-0.5-0.3-0.8
	c-0.1-0.2-0.3-0.4-0.5-0.6c-0.1-0.1-0.2-0.2-0.2-0.2l0,0c0.2-0.7,0.1-1.3-0.1-2c-0.1-0.2-0.2-0.5-0.3-0.7c-0.1-0.2-0.2-0.3-0.3-0.5
	c-0.1-0.1-0.2-0.2-0.3-0.3c-0.1-0.1-0.2-0.2-0.3-0.2c-0.1-0.1-0.3-0.2-0.4-0.3l-0.1,0c0-0.1,0.1-0.1,0.1-0.2
	c0.1-0.2,0.1-0.5,0.2-0.7c0-0.1,0-0.3,0-0.4c0-0.1,0-0.3,0-0.4c0-0.6-0.2-1.2-0.5-1.8c-0.2-0.4-0.5-0.8-0.9-1
	c-0.2-0.2-0.4-0.3-0.6-0.4c-0.1-0.1-0.2-0.1-0.3-0.1c0,0,0,0,0,0s0,0,0,0l-0.4-0.2l-0.8-0.4l-0.6-0.3l-0.5-3.4
	c-0.1-0.7-0.3-1.3-0.6-1.9c-0.4-0.7-0.9-1.3-1.6-1.8c-0.2-0.1-0.3-0.2-0.5-0.3c0,0,0,0,0,0h0h0l-0.1-0.1V63.4c0-4-3.2-7.2-7.2-7.2
	h-106l0.2,0.4C163.5,61.3,164.4,65.2,164.5,69.2z M284.2,258.1c-0.2-0.1-0.3-0.2-0.5-0.3v0l0.1,0.1l0.1,0.1
	C283.9,257.9,284.1,258,284.2,258.1C284.2,258.1,284.3,258.1,284.2,258.1z M148.5,183.5c10.9-8.1,23.3-13,36.4-16.1
	c0.7-0.1,1.5,0,2.1,0.5l32.4,19c16.4,9.6,32.7,19.1,49.1,28.7c0.5,0.2,0.9,0.5,1.2,0.9c-0.1,0.6-0.6,0.4-0.9,0.5
	c-4.5,0.4-9,1.1-13.4,2.1c-29.9,6.5-55.5,25.6-70.3,52.4c-0.8,1.5-1.3,0.6-1.9-0.1c-5.9-7.1-11.9-14.1-18-21
	c-9.8-11.3-19.8-22.4-29.5-33.9c-2-2.4-4-4.8-6.1-7.2c-0.7-0.7-0.8-1.7-0.3-2.6C133.6,197.2,140.2,189.7,148.5,183.5z M185.8,274
	c0.3-1.4,1.2-2.4,1.9-3.5c11-17.3,25.1-31.1,43.7-40c6.9-3.3,14.2-5.8,21.7-7.6c0.8-0.2,1.6-0.1,2.3,0.3c5.8,3.7,11.5,7.4,17.3,11
	c0.3,0.2,0.7,0.3,0.7,0.9C240.1,238.9,210.3,250.4,185.8,274L185.8,274z M125.8,206.6c9.6,11.5,19.1,23,28.7,34.5
	c8.6,10.4,17.3,20.7,25.9,31c0.2,0.3,0.6,0.5,0.5,1c-0.6,0.2-0.9-0.3-1.3-0.5c-10.5-5.7-21.5-10-33.2-12.5c-9.4-1.9-19-2.5-28.6-1.8
	c-12.6,1-24.9,4.5-36.2,10.3c-1.2,0.6-1.7,0.4-2.4-0.7c-16-26.1-32-52.1-48-78.2c-0.7-1.1-0.6-1.5,0.6-2.1
	c9.9-4.2,20.3-6.8,30.9-8.6c4.2-0.7,8.4-1.2,12.6-1.5c8.9-0.7,17.1,1.9,24.7,6.3C110.1,190,118.4,197.8,125.8,206.6L125.8,206.6z
	 M78.2,287.4c-8.1-13.9-16.2-27.8-24.4-41.7l-26.4-45.1c-0.2-0.3-0.4-0.7-0.6-1c-0.3-0.6-0.1-0.9,0.6-1c1.7-0.1,3.5-0.2,5.2-0.4
	c0.9-0.1,1.2,0.7,1.5,1.2c4.4,7.4,8.7,14.8,13.1,22.2c10.6,18.3,21.1,36.8,32.4,54.8c0.5,0.9,0.9,1.4,2,0.6
	c8.9-6.2,19-9.4,29.5-11.3c8.1-1.5,16.3-2,24.6-1.8c11.9,0.4,23.6,1.9,34.7,6.2c3,1,5.7,2.5,8.2,4.5c0,0.1-0.1,0.2-0.2,0.4
	c-1.9-0.7-3.9-1.5-5.8-2.1c-8.6-2.9-17.5-4.6-26.5-5c-21.9-1-41.9,4.9-60.4,16.3c-1.9,1.2-3.8,2.4-5.6,3.8
	C79.2,288.6,78.8,288.4,78.2,287.4z M273.6,244.3c2.7-0.5,4.3,1.5,6.2,2.7c0.6,0.4-0.3,0.7-0.7,0.7c-2.5,0.4-4.9,0.8-7.4,1.3
	c-20.6,3.7-40.7,9-60.1,16.7c-7.3,2.9-14.4,6.2-21,10.4c-0.3,0.3-0.7,0.4-1.1,0.2c3-2.6,6.2-5,9.6-7.1c11.1-6.9,23-11.6,35.4-15.5
	C247.3,249.7,260.4,246.6,273.6,244.3z M280.1,251.5c-9.2,2-18.4,4.1-27.5,6.6c-18.7,5-37.2,10.5-55.2,17.7
	c-1.6,0.6-3.2,1.3-5.1,2.2c0.4-0.7,1.1-1.2,1.9-1.6c9-5.3,18.6-9.2,28.3-12.8c16.8-6,34-10.7,51.5-14c2.2-0.4,4.3-0.6,6.4,0.6
	c0.4,0.2,1,0.3,1,0.8S280.5,251.4,280.1,251.5L280.1,251.5z M278.4,242.6c-0.1,0.4-0.6,0.3-0.9,0.4c-8.5,0.9-16.9,2.3-25.2,4.2
	c-19,4.5-37.3,11-54.1,21.1c-3.2,1.9-6.3,4.1-9.2,6.4c-0.4,0.5-1,0.8-1.7,0.8c1.5-1.6,2.8-3.1,4.2-4.5c7.7-7.4,16.7-12.8,26.2-17.5
	c15.8-7.7,32.7-13,50-15.8c2-0.3,3.8-0.3,5.5,1c1.4,1.1,3.1,2,4.6,3C278.1,242,278.5,242.2,278.4,242.6L278.4,242.6z"/>
<path class="st2" d="M302.7,16.2c0.4,0.5,0.6,1,0.8,1.6c0,0.1,0.1,0.3,0.1,0.4l0.1,0.4V19v0.6v10.4l0.2,41.5l0.1,20.8l0.1,20.8
	c0.3,55.4,0.8,110.8,1.8,166.2c1-55.4,1.5-110.8,1.8-166.2l0.1-20.8l0.1-20.8l0.2-41.5V19.7V19l0-0.8c0-0.3-0.1-0.6-0.1-0.8
	c0-0.3-0.1-0.6-0.2-0.8c-0.3-1.1-0.8-2.1-1.5-3c-1.4-1.9-3.5-3.1-5.8-3.5c-0.3,0-0.6-0.1-0.9-0.1c-0.3,0-0.5,0-0.7,0h-3.9h-5.2
	h-10.4l-41.5-0.1L154.8,10c-27.7,0.1-55.4,0.2-83.1,0.4l-41.5,0.3l-10.4,0.1l-5.2,0h-1.3H13h-0.4c-0.3,0-0.5,0-0.8,0.1
	c-1,0.2-2,0.5-2.9,1.1c-1.8,1.1-3,2.8-3.6,4.8c-0.1,0.5-0.2,1-0.3,1.5L5,19.1v0.7v2.6l0.1,10.4c0.3,27.7,0.6,55.4,1.2,83.1
	c0.5-27.7,0.8-55.4,1.2-83.1l0.1-10.4v-2.6v-0.7l0-0.5c0-0.4,0.1-0.7,0.2-1c0.4-1.4,1.3-2.5,2.5-3.3c0.6-0.4,1.3-0.6,1.9-0.7
	c0.2,0,0.3,0,0.5,0H13h0.3h1.3l5.2,0l10.4,0.1l41.5,0.3c27.7,0.2,55.4,0.3,83.1,0.4l83.1,0.1l41.5-0.1h10.4h7.8c0.8,0,1.9,0,2.3,0
	C301,14.6,302,15.2,302.7,16.2z"/>
<path class="st0" d="M153.3,27.8L153.3,27.8"/>
<path class="st3" d="M150.4,21.8c-2-0.9-4.4-0.4-6,1.2c-4.6,3.7-8.8,7.9-12.3,12.7c-5,6.8-7.7,13.6-8.3,20.7c-0.1,0.7-0.1,1.3-0.1,2
	c-0.3,7.6,1.8,14.9,6.3,22c-1.7,0.6-3.2,1.7-4.3,3.2c-2.7,3.8-2.9,8.8-0.5,12.8c0,0.1,0,0.2,0,0.4v81.7c-5,1.8-8.9,4.4-11.3,7.4
	c1.2,1,2.5,2,3.6,3c2.2-3,6.7-5.4,12.4-7V96.7c0.1-1-0.1-2-0.6-2.8c-1.5-2.3-1.4-5.3,0.2-7.5c1.6-2.1,4.1-2.5,6.1-0.7
	c5.7,5,11.3,10,17,15.1l5,4.4c2.6,2.3,3.1,5.8,1.1,8.8c-0.4,0.8-0.6,1.7-0.5,2.6v54.1c1.6-0.8,3.2-1.6,4.8-2.4v-51.7
	c0-0.1,0-0.3,0-0.4c2.9-5,2-10.8-2.3-14.6l-4.1-3.6l-0.9-0.8l-4.8-4.3l-1.5-1.3c0.2-0.1,0.3-0.2,0.5-0.3c2.2-1.3,4.3-2.8,6.2-4.5
	c5.7-5,8.5-10.9,8.3-17.6c-0.1-4-1-7.9-2.9-12.5l-0.2-0.4c-0.8-1.9-1.6-3.8-2.4-5.7c-1.1-2.6-2.3-5.2-3.3-7.9
	c-2.4-6-3.1-10.6-2.4-14.9C154,25.4,152.7,22.8,150.4,21.8z M157.2,58.5c1.5,3.4,2.4,7,2.5,10.7c0.1,5.8-2.6,10.2-6.7,13.9
	c-1.7,1.5-3.6,2.9-5.6,4c-0.4,0.2-0.7,0.7-1.1,0.4s0-0.8,0.1-1.2c1.5-5.9,2.7-11.8,2.3-17.9c-0.3-5.3-1.9-10-6.4-13.3
	c-0.5-0.4-1.1-0.7-1.7-0.9c0.4,1.5,0.9,3,1.3,4.4c0.9,3.5,0.8,7.1-0.2,10.5c-1.4,4.8-2.5,9.7-2,14.7c0.1,0.2-0.1,0.5-0.3,0.5
	c-1-1-2-2-2.8-3.2c-5.1-6.8-8.3-14.2-8-22.9c0.3-7.5,3.2-14.1,7.6-20c3.3-4.4,7.2-8.4,11.5-11.8c0.3-0.2,0.6-0.6,1-0.5
	c0.3,0.1,0.2,0.5,0.1,0.8c-1.1,6.1,0.4,11.9,2.7,17.5C153.2,49.2,155.3,53.9,157.2,58.5L157.2,58.5z"/>
<path class="st1" d="M148.6,26.9c0-0.3,0.2-0.6-0.1-0.8c-0.4-0.2-0.7,0.2-1,0.5c-4.3,3.4-8.2,7.4-11.5,11.8c-4.4,6-7.3,12.5-7.6,20
	c-0.3,8.7,2.9,16.1,8,22.9c0.8,1.1,1.7,2.2,2.8,3.2c0.2-0.1,0.4-0.3,0.3-0.5c-0.5-5.1,0.6-9.9,2-14.7c1-3.4,1.1-7.1,0.2-10.5
	c-0.4-1.5-0.8-2.9-1.3-4.4c0.6,0.1,1.2,0.4,1.7,0.9c4.5,3.3,6,8,6.4,13.3c0.4,6.1-0.8,12-2.3,17.9c-0.1,0.4-0.5,0.9-0.1,1.2
	s0.8-0.2,1.1-0.4c2-1.2,3.9-2.5,5.6-4c4.2-3.7,6.9-8.1,6.7-13.9c-0.2-3.7-1-7.3-2.5-10.7c-1.9-4.7-4-9.3-6-14.1
	C149,38.9,147.6,33.1,148.6,26.9z"/>
<path class="st4" d="M122.4,193.5c1.5,1.6,3,3.1,4.4,4.8c0.4,0.4,0.8,0.9,1.1,1.3c0.8-1.7,1.7-3.3,2.7-4.9c1.1-1.7,2.3-3.4,3.6-5
	c0.6-0.8,1.3-1.6,2-2.3s1.4-1.5,2.1-2.2c1.4-1.4,2.9-2.8,4.5-4.1c0.8-0.7,1.6-1.3,2.3-1.9s1.6-1.2,2.4-1.8c3.4-2.5,6.9-4.7,10.6-6.6
	v-54.1c-0.1-0.9,0.1-1.8,0.5-2.6c1.9-3.1,1.4-6.6-1.1-8.8l-5-4.4c-5.7-5-11.3-10.1-17-15.1c-2-1.7-4.5-1.4-6.1,0.7
	c-1.6,2.2-1.6,5.2-0.2,7.5c0.5,0.9,0.7,1.8,0.6,2.8v85.2c-5.7,1.5-10.2,4-12.4,7C119.2,190.4,120.8,191.9,122.4,193.5z"/>
<polygon class="st1" points="178.1,282.2 178.1,282.2 178.1,282.2 "/>
<path class="st3" d="M93.9,209.1c-1.7,0.5-3.2,1.5-4.4,2.7c-1.3,1.3-2.4,2.8-3.2,4.4c-0.9,1.7-1.4,3.5-1.7,5.3
	c-0.3,1.9-0.2,3.8,0.4,5.6c0.6,1.8,1.6,3.5,3.1,4.7c0.7,0.6,1.5,1.1,2.4,1.5l0.6,0.3c0.2,0.1,0.5,0.1,0.7,0.2
	c0.2,0.1,0.4,0.1,0.7,0.2l0.7,0.1c1.9,0.3,3.7,0.4,5.6,0.2c1.8-0.2,3.7-0.5,5.4-1.1c1.8-0.6,3.5-1.4,5.1-2.3
	c1.7-0.9,3.2-2.2,4.4-3.7c1.2-1.5,1.9-3.4,1.9-5.4c-0.1-2-0.8-3.8-2-5.4c-1.2-1.5-2.6-2.9-4.2-3.9c-1.6-1.1-3.2-1.9-5-2.6
	c-1.7-0.7-3.5-1.2-5.3-1.4C97.3,208.5,95.6,208.6,93.9,209.1z"/>
<path class="st3" d="M75.4,177.9c-4.2,0.3-8.4,0.8-12.6,1.5c-10.6,1.7-21,4.4-30.9,8.6c-1.2,0.5-1.3,1-0.6,2.1
	c16,26.1,32,52.1,48,78.2c0.7,1.1,1.2,1.3,2.4,0.7c11.2-5.8,23.5-9.3,36.2-10.3c9.6-0.8,19.2-0.2,28.6,1.8
	c11.7,2.4,22.7,6.8,33.2,12.5c0.4,0.2,0.8,0.7,1.3,0.5c0.1-0.5-0.3-0.7-0.5-1c-8.6-10.3-17.3-20.7-25.9-31
	c-9.6-11.5-19.1-23-28.7-34.5c-7.4-8.8-15.6-16.7-25.7-22.4C92.4,179.8,84.3,177.2,75.4,177.9z M107,208.3c0.4,0.3,0.9,0.6,1.3,0.9
	c0.8,0.6,1.6,1.3,2.4,2.1c1.4,1.5,2.7,3.2,3.6,5c1,1.8,1.5,3.8,1.6,5.8c0,2-0.6,4-1.6,5.8c-0.5,0.9-1.1,1.8-1.7,2.6
	c-0.7,0.8-1.4,1.6-2.2,2.2c-1.6,1.4-3.4,2.5-5.4,3.3c-2,0.7-4.1,1.1-6.2,1.1c-4.2,0-8.3-1.5-11.5-4.3c-1.5-1.4-2.7-3.2-3.4-5.1
	c-0.7-2-1.1-4-1-6.1c0-4.3,1.6-8.4,4.5-11.6c1.5-1.7,3.4-2.9,5.5-3.7c2.1-0.7,4.4-0.9,6.6-0.6c1.1,0.1,2.1,0.4,3.2,0.7
	c1,0.3,2,0.7,2.9,1.2C106,207.7,106.5,208,107,208.3L107,208.3z"/>
<path class="st3" d="M129.4,206.7c-0.5,0.8-0.3,1.9,0.3,2.6c2.1,2.4,4.1,4.8,6.1,7.2c9.7,11.4,19.6,22.6,29.5,33.9
	c6.1,7,12.1,13.9,18,21c0.5,0.7,1,1.6,1.9,0.1c14.8-26.8,40.4-45.9,70.3-52.4c4.4-0.9,8.9-1.6,13.4-2.1c0.3,0,0.8,0.2,0.9-0.5
	c-0.3-0.4-0.7-0.7-1.2-0.9c-16.4-9.6-32.7-19.1-49.1-28.7l-32.4-19c-0.6-0.4-1.4-0.6-2.1-0.5c-13.1,3.1-25.5,8-36.4,16.1
	C140.2,189.7,133.6,197.2,129.4,206.7z M189.3,223c1.8,0.4,3.4,1.6,4.3,3.3c0,0-0.1,0.1-0.1,0.1c-0.3,0.1-0.9-0.1-0.9,0.4
	s0.4,0.5,0.7,0.7c0.1,0.1,0.2,0.1,0.4,0.2c0.2,0.1,0.5,0.3,0.4,0.6c-0.1,0.3-0.4,0-0.6,0c-0.2,0-0.3,0-0.5,0c-0.7,0-1.3-0.2-1.5-1
	c-0.2-0.7,0.3-1.2,0.9-1.5c-0.9-0.6-1.8-1.1-2.8-1.4c-0.6-0.2-1.1-0.5-1.5-0.9c-0.4-0.4-0.4-0.9-0.2-1.4c0.1-0.4,0.5-0.5,0.9-0.4
	C188.3,222.4,188.4,222.8,189.3,223z M190,232.5c1.4-0.9,2.8-1.8,3.4-3.5c0.5,1.1,0.4,2.4-0.2,3.4c-1,1.9-2.6,3-4.3,4.1
	c-1.2,0.7-2.3,1.6-3.3,2.6c-0.8,0.7-1.2,1.6-1.2,2.6c0,0.1-0.1,0.3-0.2,0.3c-0.6-0.7-0.8-1.6-0.5-2.5c0.5-1.8,1.5-3.3,3-4.4
	C187.7,234.1,188.8,233.3,190,232.5L190,232.5z M183.6,242.3c0.6,0.6,1.4,0.8,2.2,0.7c1.7-0.2,3.3-0.6,4.9-1.2
	c3.6-1.4,6.9-3.3,10.1-5.5c3.3-2.4,6.4-5.1,9.2-8.1c1.7-1.7,3-3.6,4.1-5.7c0.6-1.3,1.1-2.5,0-3.9c0.9,0.1,1.6,0.8,1.8,1.7
	c0.2,1.3,0,2.6-0.7,3.7c-1.3,2.6-3.1,4.9-5.2,6.8c-3.6,3.3-7.4,6.4-11.4,9.1c-3.1,2.2-6.7,3.7-10.5,4.5c-1.1,0.3-2.3,0.2-3.4-0.2
	c-1-0.3-1.7-1.2-1.6-2.2C183.4,242,183.5,242.1,183.6,242.3L183.6,242.3z M194.1,229.1c1.7-1,3.3-2,4.6-3.5
	C198.8,227,195.5,229.3,194.1,229.1L194.1,229.1z M198.9,224.8c2.3-0.1,3.7-1.7,5.3-3c1.8-1.5,3.7-3,6.2-3.4
	c1.1-0.2,2.1-0.2,3.1,0.5c0.2,0.2,0.4,0.3,0.4,0.6c0,0,0,0.1-0.1,0.1c-2.8-0.5-4.5,1.4-6.3,2.9c-1.5,1.2-2.9,2.5-4.9,3
	c-1.1,0.3-2.3,0.2-3.3-0.3C199.2,225.1,199,225.1,198.9,224.8L198.9,224.8z M185.1,206.6L185.1,206.6L185.1,206.6l0.3-0.4
	c0.2,0.1,0.2,0.3,0.1,0.4c-0.1,1.4,0.7,2.7,2,3.2c0.6,0.2,1.3,0.5,1.8,0.9c1,0.8,1.1,1.8,1,3c1-0.8,2-0.6,2.3,0.7
	c0.1,0.7,0.2,1.5,0.2,2.3c0,0.5,0.1,1.1,0.2,1.6l0,0l0,0c0.1-0.4,0.4-0.8,0.9-0.8c0.6,0,1.1,0.4,1.3,0.9c0.2,0.6,0.4,1.3,0.4,2
	c0.1,0.9,0.3,1.7,0.5,2.5c0.2-0.2,0.4-0.3,0.6-0.5c0.3-0.2,0.8-0.2,1.2,0c0.4,0.3,0.6,0.7,0.6,1.2c0,0.4-0.1,0.9-0.2,1.3
	c0,0.1,0,0.2-0.1,0.2c-0.1,0-0.2-0.1-0.3-0.2c-0.2-0.3-0.4-0.7-0.4-1.1c-0.1-0.2-0.1-0.6-0.4-0.6c-0.3,0-0.5,0.3-0.5,0.5
	c-0.2,0.6-0.4,0.4-0.6,0.1c-1.1-1.2-1.7-2.8-1.6-4.5c0-0.2,0-0.4,0-0.6c-0.1-0.7-0.3-0.8-0.9-0.5c-0.1,0-0.2,0-0.3-0.1l0,0l0,0
	c0,0.6,0.3,1.1,0.4,1.9c-0.9-0.6-1.5-1.6-1.8-2.7c-0.2-0.7-0.2-1.5-0.2-2.2c0-1.3,0-1.3-1.2-1.6l0,0c0,0.5,0,1-0.1,1.5
	c-0.4,0-0.4-0.3-0.6-0.5c-0.3-0.4-0.5-0.9-0.7-1.3c-0.3-0.6-0.8-1.1-1.4-1.4c-2.1-0.7-3.3-3-2.6-5.2
	C185.1,206.8,185.1,206.7,185.1,206.6L185.1,206.6c-1.3,2-3.4,3.5-5.7,4.1l0,0c1.1-0.1,2.3,0.1,3.2,0.8c0.8,0.6,1.4,1.5,1.5,2.5
	c0.1,1.2,0.7,2.2,1.6,2.9c0.4,0.3,0.7,0.7,1,1.2l-1.5-0.3c-0.4,0.9-0.3,1.2,0.6,1.4c0.9,0.2,1.7,0.5,2.5,0.9c0.9,0.5,1.6,1.3,2,2.2
	c-0.1,0.1-0.2,0.1-0.2,0.1c-1.3-0.8-2.7-1.5-4.2-1.9c-0.3-0.1-0.6-0.2-0.9-0.4c-1.1-0.7-1.2-1.7-0.1-2.5c-0.7-0.3-1.4-0.3-2-0.9
	c-0.5-0.6-0.8-1.4-0.9-2.2c-0.1-1.8-0.8-3.1-2.7-3.5c-0.3-0.1-0.2-0.2,0-0.4l0,0c0.1-0.2,0-0.3-0.2-0.2c-0.9,0.5-1.9,0.9-2.9,1.3
	c-2,0.8-4.2,0.7-6.2-0.1c-2.7-1.1-4.9-2.9-7.1-4.9c-1.6-1.4-3.1-2.9-4.6-4.5c-1.5-1.5-3.1-2.9-5.3-3.3c0.2-0.4,0.4-0.3,0.6-0.3
	c1.5-0.1,3,0.2,4.4,0.9c2.2,1.1,4,2.8,5.9,4.5c1.4,1.3,2.9,2.6,4.5,3.7c2,1.4,4.5,2.1,7,2c1.8,0,3.6-0.2,5.4-0.6
	c1.1-0.3,2-0.9,2.5-1.9c0.9-1.8,1.7-3.6,2.2-5.6c0.7-2.5,0.6-5.2-0.4-7.6c-0.9-2.5-2.2-4.9-3.4-7.3c-0.9-1.8-1.4-3.8-1.5-5.8
	c0-1.1,0.2-2.3,0.8-3.3c0.1,0,0.1,0.1,0.1,0.2c-0.1,2.2,0.8,4.1,1.8,5.9c1.7,2.9,3.2,5.9,4.5,9.1c0.7,1.8,1.1,3.8,1.2,5.8
	c0,1.9-0.7,3.7-1.9,5.2c-0.6,0.7-1.2,1.4-1.8,2C184.9,206.3,184.8,206.4,185.1,206.6L185.1,206.6z M168.8,188.7c2-1.5,4-3.2,5.8-5
	c1.6-1.5,3.1-3.1,4.8-4.5c0.2-0.2,0.4-0.4,0.8-0.4c-0.2,0.5-0.4,1-0.8,1.4c-2,2.8-4.4,5.3-7,7.5c-3.9,3.3-8.2,6.1-12.8,8.3
	c-1.6,0.7-3.1,1.4-4.7,2.1c-0.3,0.2-0.6,0.3-1,0.2c0.8-0.7,1.6-1.3,2.5-1.9C160.5,193.9,164.8,191.6,168.8,188.7L168.8,188.7z
	 M167.6,200.1c0.5-0.7,1.3-1.2,2.2-1.3c0.3-0.1,0.5-0.1,0.8-0.1c0.8,0,1.6,0,2.4-0.7c-0.1,0.9-0.7,1.8-1.6,2.1
	c-0.5,0.2-1,0.6-1.1,1.2c-0.1,0.3-0.4,0.5-0.7,0.6c0-0.5,0.3-0.7,0.5-1.1c-0.6,0-0.6,0.5-0.7,0.8c-0.2,0.8-0.9,1.3-1.7,1.3
	c-0.2,0-0.6,0.1-0.4-0.4c0-0.1,0-0.1,0-0.2C166.9,201.5,167.1,200.6,167.6,200.1L167.6,200.1z M173.9,199.1
	c-0.8-1.4-1.3-2.9-1.4-4.5c0-0.5-0.1-1-0.4-1.5c-0.2,0.2-0.1,0.4-0.1,0.5c0.1,0.4,0,0.8-0.4,1.1c-0.4,0.2-0.8,0.1-1.1-0.2
	c0,0-0.1-0.1-0.1-0.1c-0.1-0.1-0.3-0.3-0.5-0.2s-0.1,0.4-0.1,0.6c0.2,0.6,0.6,1.1,1.1,1.3c0.1,0,0.3,0.1,0.3,0.2
	c-0.7,0.1-1.5-0.2-1.9-0.8c-0.6-0.5-0.8-1.3-0.5-2c0.1-0.4,0.5-0.7,0.9-0.7c0.4,0,0.7-0.2,0.8-0.5c0.5-0.9,1.5-1,2.3-0.2
	c0.5,0.5,0.8,1.1,0.9,1.8c0.1,0.6,0.1,1.2,0.1,1.8c0.1,1.9,0.5,3.8,1.9,5.2C175,200.5,174.4,199.9,173.9,199.1L173.9,199.1z
	 M175.1,198c1.1,0.5,1.9,1.3,2.3,2.4c0.5,1.2,0.9,2.6,0.9,3.9c0,0.5,0.1,1,0.5,1.3c0.2-0.3,0-0.5,0-0.7c-0.1-0.4,0.1-0.8,0.4-1
	c0.3-0.2,0.7-0.1,1,0.2c0,0.1,0.1,0.1,0.1,0.2c0.2,0.1,0.3,0.4,0.5,0.2c0.2-0.2,0.1-0.4,0-0.6c-0.2-0.6-0.6-1-1.2-1.3
	c-0.1-0.1-0.3,0-0.4-0.3c1.4-0.1,2.6,0.9,2.6,2.3c0,0.1,0,0.1,0,0.2c0,0.6-0.5,1.1-1.1,1.2c-0.3,0-0.6,0.2-0.7,0.5
	c-0.4,0.7-1.2,1-1.9,0.6c-0.2-0.1-0.3-0.2-0.5-0.4c-0.5-0.5-0.8-1.2-0.9-1.9c0-0.7-0.1-1.4-0.1-2.1C176.8,201,176.5,199.3,175.1,198
	L175.1,198z M180.7,192.9c-0.2,0.9-1.1,1.5-2,1.3c-0.5-0.1-0.5,0.2-0.8,0.5c0.2-0.1,0.3-0.1,0.5-0.1c0.2,0,0.6-0.3,0.7,0
	s-0.3,0.5-0.6,0.5c-0.7-0.1-1,0.4-1.5,0.8c-0.6,0.6-1.4,1-2.2,0.9c0.8-0.6,0.9-1.6,1.2-2.4c0.3-0.8,0.9-1.6,1.7-2.1
	c1-0.6,2-0.2,3,0.2C180.8,192.6,180.7,192.7,180.7,192.9L180.7,192.9z M180.7,177.4c-0.2,0.3-0.5,0.3-0.8,0.4
	c-6.2,1.5-11.5,4.7-16.4,8.8c-4,3.4-7.3,7.3-10.5,11.5c-0.1,0.1-0.2,0.2-0.2,0.2c0.2-1.3,0.7-2.6,1.4-3.7c1.4-2.2,3.2-4.2,5.1-6
	c2.2-2,4.5-3.9,7-5.6c3.4-2.3,6.8-4.3,10.8-5.3C178.4,177.3,179.6,177.2,180.7,177.4L180.7,177.4z"/>
<path class="st3" d="M80.2,287.9c1.8-1.3,3.7-2.6,5.6-3.8c18.5-11.5,38.5-17.3,60.4-16.3c9,0.4,18,2.1,26.5,5c2,0.7,3.9,1.4,5.8,2.1
	c0.1-0.1,0.1-0.2,0.2-0.4c-2.5-1.9-5.3-3.4-8.2-4.5c-11.2-4.3-22.9-5.8-34.7-6.2c-8.2-0.3-16.5,0.3-24.6,1.8
	c-10.6,1.9-20.6,5.1-29.5,11.3c-1.1,0.8-1.5,0.2-2-0.6c-11.3-17.9-21.7-36.4-32.4-54.8c-4.3-7.4-8.7-14.8-13.1-22.2
	c-0.3-0.6-0.6-1.3-1.5-1.2c-1.7,0.1-3.5,0.2-5.2,0.4c-0.7,0-0.9,0.4-0.6,1c0.2,0.4,0.4,0.7,0.6,1l26.4,45.1
	c8.1,13.9,16.3,27.8,24.4,41.7C78.8,288.4,79.2,288.6,80.2,287.9z"/>
<path class="st3" d="M44.5,234.2c-3.7-6.4-7.4-12.7-11.1-19c-0.3-0.6-0.6-1.3-1.5-1.2c-1.4,0.1-2.8,0.2-4.2,0.3
	c-1.1,0.1-1.4,0.5-0.8,1.5c1.2,1.9,2.3,3.9,3.4,5.8L70.2,290l0.1,0.2h6.9C65.8,271.8,55.3,252.9,44.5,234.2z"/>
<path class="st3" d="M134.2,277.9c12.2-2.4,24.6-2.9,37-1.7c2.2,0.2,4.3,0.4,6.5,0.7l0.1-0.3c-0.1-0.1-0.2-0.2-0.4-0.2
	c-0.3-0.1-0.7-0.2-1-0.3c-8.5-2.8-17.4-3.7-26.3-3.7c-9.3,0-18.6,1.1-27.7,3.2c-12.9,3-25.1,7.5-36.2,14.8H100
	C110.7,284.4,122.3,280.3,134.2,277.9z"/>
<path class="st3" d="M176.8,279.6c-0.1-0.3-0.5-0.5-0.8-0.5c-2-0.1-4-0.3-6-0.3c-8.6-0.1-17.2,0.6-25.6,2.1
	c-10.8,2-21.4,5.1-31.6,9.2h17.3c11.8-4.2,24-7.3,36.4-9.3C169.9,280.5,173.3,280.1,176.8,279.6z"/>
<path class="st3" d="M43.3,248.8c-4.2-7.2-8.3-14.3-12.5-21.5c-0.4-0.6-0.7-1.3-1.6-1.3c-1.3,0-2.6,0-3.9,0c-0.9,0-1,0.4-0.6,1.1
	l0.5,0.8c7.1,12,14.2,24.1,21.2,36.1c5.1,8.7,10.1,17.4,15.2,26.2h5.9C59.5,276.4,51.4,262.6,43.3,248.8z"/>
<path class="st3" d="M178.1,282.2c-0.5-0.2-1.1-0.2-1.6,0c-10.7,2.1-21.3,4.8-31.6,8.1h12.8c2.8-1.1,5.6-2.2,8.4-3.3
	C170,285.3,174.1,283.8,178.1,282.2z"/>
<path class="st3" d="M26.1,232.9c-0.2-0.3-0.3-1.1-1-0.6c-0.7,0.5-0.9,3.7-0.4,4.5c1.5,2.6,2.9,5.1,4.4,7.7l26.3,45.7H60l-28.4-48
	C29.8,239.1,27.9,236,26.1,232.9z"/>
<path class="st3" d="M178.1,282.2c-0.1,1.2-0.1,2.2,1.5,2.6c3.9,1,9.5-0.6,12-3.8c0.6-0.8,1.5-1.4,2.5-1.7
	c27.1-7.5,54.3-14.3,81.6-20.8l9.8-2.3c0.3-0.1,0.6,0,0.8-0.4c0.1-0.5-0.3-0.6-0.6-0.8c-1-0.6-2-1.1-2.9-1.8
	c-0.9-0.7-2.1-0.9-3.2-0.6c-18.6,5-37.4,9.6-55.9,15.3c-10.1,3.1-20.2,6.3-29.8,10.7c-1.1,0.5-1.7,0.5-2.6-0.3
	c-1.8-1.7-4.4-2.6-6.9-2.3C180.8,276.6,178.9,278.8,178.1,282.2L178.1,282.2L178.1,282.2z"/>
<path class="st3" d="M272.6,234.2c-5.8-3.7-11.5-7.4-17.3-11c-0.7-0.4-1.5-0.5-2.3-0.3c-7.5,1.7-14.8,4.3-21.7,7.6
	c-18.6,8.9-32.7,22.7-43.7,40c-0.7,1.1-1.5,2.2-1.9,3.5c24.5-23.6,54.3-35.2,87.5-38.9C273.3,234.5,272.9,234.4,272.6,234.2z"/>
<path class="st3" d="M273.2,238.9c-1.7-1.3-3.5-1.3-5.5-1c-17.4,2.8-34.2,8.1-50,15.8c-9.5,4.6-18.5,10.1-26.2,17.5
	c-1.4,1.4-2.7,2.8-4.2,4.5c0.7,0,1.3-0.3,1.7-0.8c2.9-2.3,6-4.5,9.2-6.4c16.8-10.1,35.1-16.6,54.1-21.1c8.3-2,16.7-3.4,25.2-4.2
	c0.3,0,0.8,0,0.9-0.4c0.1-0.4-0.3-0.6-0.6-0.8C276.3,240.9,274.6,240,273.2,238.9z"/>
<path class="st3" d="M199.1,269.2c-3.4,2.1-6.6,4.5-9.6,7.1c0.4,0.1,0.8,0.1,1.1-0.2c6.6-4.2,13.8-7.5,21-10.4
	c19.4-7.8,39.6-13,60.1-16.7c2.5-0.4,4.9-0.8,7.4-1.3c0.4-0.1,1.3-0.3,0.7-0.7c-1.9-1.2-3.5-3.1-6.2-2.7
	c-13.2,2.2-26.3,5.3-39.1,9.3C222.2,257.6,210.2,262.3,199.1,269.2z"/>
<path class="st3" d="M280.2,250.1c-2-1.2-4.1-1-6.4-0.6c-17.5,3.3-34.7,8-51.5,14c-9.8,3.5-19.4,7.5-28.3,12.8
	c-0.8,0.3-1.4,0.9-1.9,1.6c2-0.8,3.5-1.5,5.1-2.2c18-7.2,36.5-12.7,55.2-17.7c9.1-2.4,18.3-4.6,27.5-6.6c0.4-0.1,1.1,0,1.1-0.5
	C281.3,250.4,280.6,250.3,280.2,250.1z"/>
<path class="st1" d="M99.5,205.5c-2.2-0.3-4.5-0.1-6.6,0.6c-2.1,0.8-4,2-5.5,3.7c-2.9,3.2-4.5,7.3-4.5,11.6c0,2.1,0.3,4.1,1,6.1
	c0.7,1.9,1.9,3.7,3.4,5.1c3.2,2.8,7.2,4.4,11.5,4.3c2.1,0,4.2-0.4,6.2-1.1c2-0.8,3.8-1.9,5.4-3.3c0.8-0.7,1.5-1.4,2.2-2.2
	c0.6-0.8,1.2-1.7,1.7-2.6c1-1.8,1.6-3.8,1.6-5.8c-0.1-2-0.7-4-1.6-5.8c-1-1.8-2.2-3.5-3.6-5c-0.7-0.8-1.5-1.4-2.4-2.1
	c-0.4-0.3-0.9-0.6-1.3-0.9s-0.9-0.5-1.4-0.8c-0.9-0.5-1.9-0.9-2.9-1.2C101.6,205.9,100.5,205.7,99.5,205.5z M109.3,212.7
	c1.6,1.1,3,2.4,4.2,3.9c1.2,1.5,1.9,3.4,2,5.4c0,2-0.7,3.9-1.9,5.4c-1.2,1.5-2.7,2.8-4.4,3.7c-1.6,1-3.3,1.7-5.1,2.3
	c-1.8,0.6-3.6,0.9-5.4,1.1c-1.9,0.2-3.8,0.1-5.6-0.2l-0.7-0.1c-0.2-0.1-0.5-0.1-0.7-0.2s-0.5-0.1-0.7-0.2l-0.6-0.3
	c-0.9-0.4-1.7-0.9-2.4-1.5c-1.5-1.2-2.5-2.9-3.1-4.7c-0.5-1.8-0.7-3.8-0.4-5.6c0.3-1.9,0.9-3.7,1.7-5.3c0.8-1.6,1.9-3.1,3.2-4.4
	c1.2-1.2,2.8-2.2,4.4-2.7c1.7-0.5,3.5-0.6,5.2-0.4c1.8,0.2,3.6,0.7,5.3,1.4C106.1,210.8,107.8,211.7,109.3,212.7z"/>
<path class="st1" d="M186.9,204c1.2-1.4,1.9-3.3,1.9-5.2c-0.1-2-0.5-3.9-1.2-5.8c-1.3-3.1-2.8-6.2-4.5-9.1c-1.1-1.8-2-3.7-1.8-5.9
	c0-0.1,0-0.2-0.1-0.2c-0.6,1-0.8,2.1-0.8,3.3c0.1,2,0.6,4,1.5,5.8c1.2,2.4,2.4,4.8,3.4,7.3c1,2.4,1.1,5.1,0.4,7.6
	c-0.6,1.9-1.3,3.8-2.2,5.6c-0.6,0.9-1.5,1.6-2.5,1.9c-1.8,0.4-3.6,0.6-5.4,0.6c-2.5,0.1-5-0.6-7-2c-1.6-1.1-3.1-2.4-4.5-3.7
	c-1.8-1.7-3.6-3.4-5.9-4.5c-1.3-0.7-2.8-1-4.4-0.9c-0.2,0-0.5,0-0.6,0.3c2.2,0.4,3.8,1.8,5.3,3.3c1.5,1.5,3,3,4.6,4.5
	c2.2,1.9,4.4,3.7,7.1,4.9c2,0.9,4.2,0.9,6.2,0.1c1-0.4,1.9-0.8,2.9-1.3c0.2-0.1,0.3-0.1,0.2,0.2c2.3-0.6,4.3-2.1,5.7-4.1
	c-0.3-0.2-0.2-0.3,0-0.5C185.7,205.4,186.3,204.7,186.9,204z"/>
<path class="st1" d="M183.1,242c-0.1,1,0.6,1.9,1.6,2.2c1.1,0.4,2.3,0.4,3.4,0.2c3.7-0.8,7.3-2.3,10.4-4.5c4.1-2.7,7.9-5.7,11.4-9.1
	c2.1-1.9,3.9-4.2,5.3-6.8c0.6-1.1,0.9-2.4,0.7-3.7c-0.1-0.9-0.9-1.6-1.8-1.7c1.1,1.4,0.5,2.6,0,3.9c-1,2.1-2.4,4-4.1,5.7
	c-2.8,3-5.9,5.7-9.2,8.1c-3.1,2.2-6.5,4.1-10.1,5.5c-1.6,0.7-3.2,1.1-4.9,1.2c-0.8,0.1-1.6-0.1-2.2-0.7
	C183.5,242.1,183.4,242,183.1,242z"/>
<path class="st1" d="M153.8,198.2c0.3,0.1,0.7,0,1-0.2c1.6-0.7,3.2-1.3,4.7-2.1c4.6-2.2,8.9-5,12.8-8.3c2.7-2.2,5-4.7,7-7.5
	c0.3-0.4,0.6-0.9,0.8-1.4c-0.4,0-0.5,0.3-0.8,0.4c-1.7,1.4-3.2,3-4.8,4.5c-1.8,1.8-3.8,3.4-5.8,5c-3.9,2.9-8.2,5.2-12.4,7.7
	C155.4,197,154.6,197.6,153.8,198.2z"/>
<path class="st1" d="M166.5,183c-2.5,1.7-4.8,3.5-7,5.6c-2,1.8-3.7,3.8-5.1,6c-0.7,1.1-1.2,2.4-1.4,3.7c0.1-0.1,0.2-0.2,0.2-0.2
	c3.1-4.2,6.4-8.1,10.5-11.5c4.9-4.1,10.2-7.3,16.4-8.8c0.2-0.1,0.6,0,0.8-0.4c-1.2-0.1-2.3,0-3.5,0.3
	C173.3,178.6,169.8,180.7,166.5,183z"/>
<path class="st1" d="M183.6,239.5c-0.2,0.9,0,1.8,0.5,2.5c0.1-0.1,0.2-0.2,0.2-0.3c0-1,0.5-2,1.2-2.6c1-1,2.1-1.8,3.3-2.6
	c1.7-1.1,3.3-2.2,4.3-4.1c0.6-1,0.7-2.3,0.2-3.4c-0.6,1.7-2,2.6-3.4,3.5c-1.2,0.8-2.4,1.6-3.5,2.5
	C185.1,236.1,184.1,237.7,183.6,239.5z"/>
<path class="st1" d="M202.6,225.5c1.9-0.5,3.4-1.8,4.9-3c1.8-1.5,3.6-3.4,6.3-2.9c0,0,0,0,0.1-0.1c0-0.3-0.3-0.4-0.4-0.6
	c-0.9-0.7-2-0.7-3.1-0.5c-2.5,0.4-4.3,1.9-6.2,3.4c-1.6,1.3-3,2.9-5.3,3c0,0.3,0.3,0.4,0.4,0.4C200.4,225.7,201.5,225.8,202.6,225.5
	z"/>
<path class="st1" d="M177.1,204.8c0,0.7,0.4,1.4,0.9,1.9c0.5,0.6,1.4,0.7,2,0.2c0.2-0.1,0.3-0.3,0.4-0.5c0.1-0.3,0.4-0.5,0.7-0.5
	c0.6,0,1.1-0.6,1.1-1.2c0-1.4-1.1-2.5-2.5-2.5c-0.1,0-0.1,0-0.2,0c0,0.2,0.3,0.2,0.4,0.3c0.5,0.3,0.9,0.7,1.2,1.3
	c0.1,0.2,0.2,0.5,0,0.6c-0.2,0.1-0.4-0.1-0.5-0.2c-0.1-0.1-0.1-0.1-0.1-0.2c-0.2-0.3-0.6-0.4-1-0.2c-0.4,0.2-0.5,0.6-0.4,1
	c0,0.2,0.2,0.4,0,0.7c-0.3-0.4-0.5-0.8-0.5-1.3c-0.1-1.4-0.4-2.7-0.9-3.9c-0.4-1.1-1.2-1.9-2.3-2.4c1.3,1.3,1.7,3,1.8,4.7
	C177,203.4,177.1,204.1,177.1,204.8z"/>
<path class="st1" d="M175.9,200.8c-1.5-1.5-1.8-3.3-1.9-5.2c0-0.6-0.1-1.2-0.1-1.8c0-0.7-0.4-1.3-0.9-1.8c-0.8-0.7-1.8-0.7-2.3,0.2
	c-0.1,0.3-0.5,0.5-0.8,0.5c-0.4,0-0.8,0.3-0.9,0.7c-0.2,0.7,0,1.5,0.5,2c0.5,0.6,1.2,0.9,1.9,0.8c-0.1-0.1-0.2-0.2-0.3-0.2
	c-0.5-0.3-1-0.7-1.1-1.3c-0.1-0.2-0.2-0.5,0.1-0.6c0.2-0.1,0.3,0.1,0.5,0.2c0,0,0.1,0.1,0.1,0.1c0.3,0.3,0.7,0.4,1.1,0.2
	c0.4-0.2,0.5-0.7,0.4-1.1c0-0.2-0.2-0.4,0.1-0.5c0.3,0.4,0.4,1,0.4,1.5c0.1,1.6,0.6,3.2,1.4,4.5
	C174.4,199.9,175.1,200.5,175.9,200.8z"/>
<path class="st1" d="M179.4,211.1c1.9,0.4,2.6,1.7,2.7,3.5c0,0.8,0.3,1.6,0.9,2.2c0.5,0.6,1.3,0.7,2,0.9c-1,0.8-1,1.8,0.1,2.5
	c0.3,0.2,0.6,0.3,0.9,0.4c1.5,0.4,2.9,1,4.2,1.9c0,0,0.1,0,0.2-0.1c-0.4-0.9-1.1-1.7-2-2.2c-0.8-0.4-1.6-0.7-2.5-0.9
	c-1-0.2-1.1-0.5-0.6-1.4l1.5,0.3c-0.2-0.5-0.6-0.9-1-1.2c-0.9-0.7-1.5-1.7-1.6-2.9c-0.1-1-0.7-1.9-1.5-2.5c-0.9-0.7-2.1-1-3.2-0.8
	C179.2,210.8,179.1,211,179.4,211.1z"/>
<path class="st1" d="M179.4,210.7"/>
<path class="st1" d="M185.1,206.6L185.1,206.6L185.1,206.6L185.1,206.6z"/>
<path class="st1" d="M187.7,212.1c0.6,0.2,1.1,0.7,1.4,1.4c0.2,0.5,0.4,0.9,0.7,1.3c0.1,0.2,0.2,0.5,0.6,0.5c0-0.5,0-1,0.1-1.5l0,0
	c1.2,0.3,1.2,0.3,1.2,1.6c-0.1,0.7,0,1.5,0.2,2.2c0.2,1.1,0.9,2,1.8,2.7c-0.1-0.7-0.4-1.3-0.4-1.9c-0.1-0.5-0.2-1.1-0.2-1.6
	c0-0.8,0-1.5-0.2-2.3c-0.4-1.3-1.3-1.6-2.3-0.7c0.1-1.1,0-2.2-1-3c-0.6-0.4-1.2-0.7-1.9-0.9c-1.3-0.5-2.2-1.8-2-3.2
	c0-0.1,0.1-0.3-0.1-0.4l-0.3,0.4c0,0.1,0,0.2,0,0.3C184.4,209,185.6,211.3,187.7,212.1z"/>
<path class="st1" d="M167.3,202.4c-0.2,0.5,0.2,0.4,0.4,0.4c0.8,0,1.5-0.6,1.7-1.3c0.1-0.3,0.1-0.8,0.7-0.8
	c-0.2,0.4-0.5,0.7-0.5,1.1c0.3,0,0.6-0.2,0.7-0.6c0.2-0.5,0.6-1,1.1-1.2c0.9-0.4,1.5-1.2,1.6-2.1c-0.8,0.7-1.6,0.7-2.4,0.7
	c-0.3,0-0.5,0-0.8,0.1c-0.9,0.1-1.7,0.6-2.2,1.3c-0.5,0.6-0.6,1.4-0.3,2.1C167.3,202.2,167.3,202.3,167.3,202.4z"/>
<path class="st1" d="M180.7,192.5c-1-0.4-1.9-0.8-3-0.2c-0.8,0.5-1.4,1.2-1.7,2.1c-0.4,0.8-0.4,1.8-1.2,2.4c0.8,0.1,1.7-0.3,2.2-0.9
	c0.4-0.4,0.8-0.9,1.5-0.8c0.3,0,0.7-0.2,0.6-0.5s-0.4-0.1-0.7,0c-0.2,0-0.3,0.1-0.5,0.1c0.2-0.4,0.3-0.6,0.8-0.5
	c0.9,0.2,1.8-0.4,2-1.3C180.7,192.7,180.8,192.6,180.7,192.5z"/>
<path class="st1" d="M187.8,222.1c-0.2,0.5-0.1,1,0.2,1.4c0.4,0.4,0.9,0.8,1.5,0.9c1,0.3,2,0.8,2.8,1.4c-0.7,0.3-1.2,0.8-0.9,1.5
	s0.8,0.9,1.5,1c0.2,0,0.3,0,0.5,0c0.2,0,0.5,0.3,0.6,0c0.1-0.3-0.2-0.5-0.4-0.6c-0.1-0.1-0.2-0.1-0.4-0.2c-0.3-0.2-0.8-0.3-0.7-0.7
	s0.6-0.3,0.9-0.4c0,0,0.1-0.1,0.1-0.1c-0.9-1.7-2.5-2.8-4.3-3.3c-0.9-0.2-1-0.6-0.6-1.3C188.3,221.6,188,221.8,187.8,222.1z"/>
<path class="st1" d="M194.3,218.8c0,0.2,0,0.4,0,0.6c0,1.6,0.5,3.2,1.6,4.5c0.3,0.3,0.4,0.5,0.6-0.1c0.1-0.2,0.2-0.5,0.5-0.5
	c0.3,0,0.3,0.4,0.4,0.6c0.1,0.4,0.2,0.8,0.4,1.1c0.1,0.1,0.2,0.2,0.3,0.2c0.1,0,0.1-0.1,0.1-0.2c0.1-0.4,0.2-0.9,0.2-1.3
	c0.1-0.5-0.1-1-0.6-1.2c-0.3-0.2-0.8-0.2-1.2,0c-0.2,0.1-0.4,0.3-0.6,0.5c-0.3-0.8-0.5-1.7-0.5-2.5c0-0.7-0.1-1.4-0.4-2
	c-0.2-0.5-0.7-0.9-1.3-0.9c-0.5,0-0.8,0.3-0.9,0.8c0.1,0,0.2,0.1,0.3,0.1C194.1,218.1,194.2,218.1,194.3,218.8z"/>
<path class="st1" d="M193.1,218.3L193.1,218.3L193.1,218.3L193.1,218.3z"/>
<path class="st1" d="M198.6,225.5c-1.3,1.6-2.9,2.5-4.6,3.5C195.5,229.3,198.8,227,198.6,225.5z"/>
</svg>
