<?xml version="1.0" encoding="utf-8"?>
<!-- Generator: Adobe Illustrator 21.0.0, SVG Export Plug-In . SVG Version: 6.00 Build 0)  -->
<svg version="1.1" id="Calque_1" xmlns="http://www.w3.org/2000/svg" xmlns:xlink="http://www.w3.org/1999/xlink" x="0px" y="0px"
	 viewBox="0 0 512 512" style="enable-background:new 0 0 512 512;" xml:space="preserve">
<style type="text/css">
	.st0{fill:#36AFE9;}
	.st1{fill:#33A6DE;}
	.st2{fill:#343434;}
	.st3{fill:#FFE4D1;}
	.st4{fill:#FFEFE4;}
	.st5{fill:#F79523;}
</style>
<path class="st0" d="M512,256c0,141.4-114.6,256-256,256C114.6,512,0,397.4,0,256S114.6,0,256,0C397.4,0,512,114.6,512,256z"/>
<path class="st1" d="M256,492C118,492,5.5,382.7,0.2,246c-0.1,3.3-0.2,6.6-0.2,10c0,141.4,114.6,256,256,256
	c141.4,0,256-114.6,256-256c0-3.4-0.1-6.7-0.2-10C506.5,382.7,394,492,256,492z"/>
<path d="M323.4,102.6c-2.9-11.2-15.3-27.2-62.4-27.2c-72.7,0-83,10.8-102.4-7.8c-16.3-15.7-25.9,59.8-4.1,83.8
	c-9.2,34-1.8,68-1.8,68h204.5C357.2,219.3,374.4,139.9,323.4,102.6z"/>
<path class="st2" d="M158.7,85.7c19.3,18.6,29.7,7.8,102.4,7.8c47.1,0,59.5,15.9,62.4,27.2c27.1,19.8,34.9,51.6,36.3,76.9
	c1.4-26.3-2.2-70.1-36.3-95.1c-2.9-11.3-15.3-27.2-62.4-27.2c-72.7,0-83,10.8-102.4-7.8c-10.7-10.3-18.5,18.8-16.5,46.7
	C143.7,93.6,150.3,77.7,158.7,85.7z"/>
<path class="st3" d="M173.3,222.9c0,0-8.8-16.1-26.4-16.1s-30.1,77.5,26.4,64.6V222.9z"/>
<path class="st3" d="M336.5,222.9c0,0,8.8-16.1,26.4-16.1c17.6,0,30.1,77.5-26.4,64.6V222.9z"/>
<path class="st4" d="M254.9,119c-135.1,0-109.3,221.6,0,221.6C364.2,340.5,390,119,254.9,119z"/>
<path d="M254.9,106.9c0,0-91.9-13-91.9,104.9c0,0,11.6-48.7,38.1-62c12.4-6.2,16.9,9.5,53.8,9.5c36.9,0,41.4-15.7,53.8-9.5
	c26.5,13.3,38.1,62,38.1,62C346.8,94,254.9,106.9,254.9,106.9z"/>
<path class="st5" d="M440.8,433.1c-6.6-16.1-19.9-29-37.1-34.7l-83-27.3c-7.8-2.6-13.2-9.9-13.2-18.1l-0.3-33.5
	c-13.9,12.5-31.1,20.2-51.3,20.4c-20.2,0.2-37.6-7.3-51.7-19.5l0.3,32.3c0.1,8.4-5.3,15.8-13.2,18.4l-83,27.2
	C91,404.1,77.7,417,71.1,433c46.6,48.7,112.2,79,184.9,79C328.7,512,394.2,481.7,440.8,433.1z"/>
<path class="st1" d="M264.9,511.8c1.5-0.1,2.9-0.1,4.4-0.2c0.9,0,1.7-0.1,2.6-0.2c1.3-0.1,2.7-0.2,4-0.3c0.9-0.1,1.8-0.2,2.7-0.2
	c1.3-0.1,2.6-0.2,3.9-0.4c0.9-0.1,1.8-0.2,2.8-0.3c1.3-0.1,2.5-0.3,3.7-0.4c0.9-0.1,1.9-0.3,2.8-0.4c1.2-0.2,2.5-0.3,3.7-0.5
	c0.9-0.1,1.9-0.3,2.8-0.5c1.2-0.2,2.4-0.4,3.6-0.6c0.9-0.2,1.8-0.4,2.8-0.5c1.2-0.2,2.4-0.5,3.6-0.7c0.9-0.2,1.8-0.4,2.7-0.6
	c1.2-0.3,2.4-0.5,3.6-0.8c0.9-0.2,1.8-0.4,2.7-0.7c1.2-0.3,2.4-0.6,3.6-0.9c0.9-0.2,1.8-0.5,2.7-0.7c1.2-0.3,2.4-0.6,3.5-1
	c0.9-0.3,1.7-0.5,2.6-0.8c1.2-0.4,2.4-0.7,3.5-1.1c0.8-0.3,1.7-0.5,2.5-0.8c1.2-0.4,2.4-0.8,3.5-1.2c0.8-0.3,1.6-0.6,2.5-0.9
	c1.2-0.4,2.4-0.8,3.5-1.3c0.8-0.3,1.6-0.6,2.4-0.9c1.2-0.5,2.4-0.9,3.5-1.4c0.8-0.3,1.6-0.6,2.4-1c1.2-0.5,2.4-1,3.5-1.5
	c0.8-0.3,1.5-0.7,2.3-1c1.2-0.5,2.4-1.1,3.5-1.6c0.7-0.3,1.5-0.7,2.2-1c1.2-0.6,2.4-1.1,3.5-1.7c0.7-0.3,1.4-0.7,2.1-1
	c1.2-0.6,2.4-1.2,3.6-1.8c0.7-0.4,1.4-0.7,2-1.1c1.2-0.6,2.4-1.3,3.6-1.9c0.6-0.4,1.3-0.7,1.9-1.1c1.2-0.7,2.4-1.4,3.6-2.1
	c0.6-0.4,1.2-0.7,1.9-1.1c1.2-0.7,2.4-1.4,3.6-2.2c0.6-0.4,1.2-0.7,1.8-1.1c1.2-0.8,2.4-1.5,3.6-2.3c0.6-0.4,1.1-0.7,1.7-1.1
	c1.2-0.8,2.4-1.6,3.6-2.4c0.5-0.4,1-0.7,1.6-1.1c1.2-0.9,2.4-1.7,3.6-2.6c0.5-0.3,1-0.7,1.4-1c1.2-0.9,2.4-1.8,3.7-2.8
	c0.4-0.3,0.9-0.7,1.3-1c1.2-1,2.5-2,3.7-2.9c0.4-0.3,0.8-0.6,1.2-0.9c1.3-1,2.5-2.1,3.8-3.1c0.3-0.3,0.7-0.6,1-0.9
	c1.3-1.1,2.6-2.2,3.9-3.4c0.3-0.3,0.6-0.5,0.8-0.7c1.3-1.2,2.6-2.4,3.9-3.6c0.2-0.2,0.4-0.4,0.6-0.6c1.4-1.3,2.8-2.6,4.1-4
	c0.1-0.1,0.2-0.2,0.4-0.4c1.5-1.5,2.9-2.9,4.3-4.4c0,0,0,0,0,0c-1.9-4.6-4.3-8.9-7.2-12.8C387.6,464.7,325,492,256,492
	c-69.1,0-131.7-27.3-177.7-71.8c-2.9,3.9-5.3,8.2-7.2,12.8c0,0,0,0,0,0c1.4,1.5,2.9,3,4.3,4.4c0.2,0.2,0.3,0.3,0.5,0.5
	c1.3,1.3,2.6,2.6,4,3.9c0.3,0.3,0.5,0.5,0.8,0.8c1.2,1.2,2.5,2.3,3.8,3.5c0.3,0.3,0.7,0.6,1,0.9c1.2,1.1,2.4,2.2,3.7,3.2
	c0.4,0.3,0.8,0.7,1.2,1c1.2,1,2.4,2,3.6,3c0.5,0.4,0.9,0.7,1.4,1.1c1.2,0.9,2.3,1.9,3.5,2.8c0.5,0.4,1,0.8,1.5,1.2
	c1.1,0.9,2.3,1.8,3.5,2.6c0.5,0.4,1.1,0.8,1.6,1.2c1.1,0.8,2.3,1.7,3.4,2.5c0.6,0.4,1.2,0.8,1.7,1.2c1.1,0.8,2.3,1.6,3.4,2.3
	c0.6,0.4,1.2,0.8,1.8,1.2c1.1,0.7,2.3,1.5,3.4,2.2c0.6,0.4,1.3,0.8,1.9,1.2c1.1,0.7,2.3,1.4,3.4,2.1c0.7,0.4,1.4,0.8,2,1.2
	c1.1,0.7,2.3,1.3,3.4,2c0.7,0.4,1.4,0.8,2.1,1.2c1.1,0.6,2.3,1.2,3.4,1.9c0.7,0.4,1.4,0.8,2.2,1.1c1.1,0.6,2.3,1.2,3.4,1.7
	c0.7,0.4,1.5,0.8,2.3,1.1c1.1,0.6,2.3,1.1,3.4,1.6c0.8,0.4,1.5,0.7,2.3,1.1c1.1,0.5,2.3,1,3.4,1.5c0.8,0.4,1.6,0.7,2.4,1
	c1.1,0.5,2.3,1,3.4,1.4c0.8,0.3,1.6,0.7,2.5,1c1.1,0.5,2.3,0.9,3.4,1.3c0.8,0.3,1.7,0.6,2.5,1c1.1,0.4,2.3,0.8,3.4,1.2
	c0.9,0.3,1.7,0.6,2.6,0.9c1.1,0.4,2.3,0.8,3.4,1.2c0.9,0.3,1.7,0.6,2.6,0.9c1.1,0.4,2.3,0.7,3.5,1.1c0.9,0.3,1.8,0.5,2.7,0.8
	c1.2,0.3,2.3,0.6,3.5,1c0.9,0.2,1.8,0.5,2.7,0.7c1.2,0.3,2.3,0.6,3.5,0.9c0.9,0.2,1.8,0.5,2.8,0.7c1.2,0.3,2.3,0.5,3.5,0.8
	c0.9,0.2,1.9,0.4,2.8,0.6c1.2,0.2,2.4,0.5,3.5,0.7c0.9,0.2,1.9,0.4,2.8,0.5c1.2,0.2,2.4,0.4,3.6,0.6c0.9,0.2,1.9,0.3,2.8,0.5
	c1.2,0.2,2.4,0.4,3.6,0.5c0.9,0.1,1.9,0.3,2.8,0.4c1.2,0.2,2.5,0.3,3.7,0.4c0.9,0.1,1.9,0.2,2.8,0.3c1.3,0.1,2.5,0.2,3.8,0.3
	c0.9,0.1,1.8,0.2,2.8,0.2c1.3,0.1,2.7,0.2,4,0.3c0.9,0.1,1.7,0.1,2.6,0.2c1.5,0.1,3,0.1,4.5,0.2c0.7,0,1.5,0.1,2.2,0.1
	c2.2,0.1,4.5,0.1,6.7,0.1c2.2,0,4.5,0,6.7-0.1C263.5,511.9,264.2,511.9,264.9,511.8z"/>
<path class="st3" d="M253,443.8c42.6,0,78.9-26.7,93.1-64.3l-25.4-8.3c-7.8-2.6-13.2-9.9-13.2-18.1l-0.3-33.5
	c-13.9,12.5-31.1,20.2-51.3,20.4c-20.2,0.2-37.6-7.3-51.7-19.5l0.3,32.3c0.1,8.4-5.3,15.8-13.2,18.4l-30.6,10
	C175.2,417.9,211.1,443.8,253,443.8z"/>
<path class="st1" d="M256,20c138,0,250.5,109.3,255.8,246c0.1-3.3,0.2-6.6,0.2-10C512,114.6,397.4,0,256,0C114.6,0,0,114.6,0,256
	c0,3.4,0.1,6.7,0.2,10C5.5,129.3,118,20,256,20z"/>
</svg>
